<?xml version='1.0' encoding='UTF-8' standalone='no'?>
<!-- Created with Fritzing (http://www.fritzing.org/) -->
<svg xmlns:svg='http://www.w3.org/2000/svg' xmlns='http://www.w3.org/2000/svg' version='1.2' baseProfile='tiny' x='0in' y='0in' width='4.62598in' height='4.11319in' viewBox='0 0 333.071 296.15' >
<g partID='854179990'><g xmlns="http://www.w3.org/2000/svg" id="schematicframe">
 <rect xmlns="http://www.w3.org/2000/svg" height="295.862" width="332.783" x="0.144" y="0.144" fill="none" stroke="black" stroke-width="0.288"/>
 <rect xmlns="http://www.w3.org/2000/svg" height="52.128" width="153.684" x="179.243" y="243.878" fill="none" stroke="black" stroke-width="0.288"/>
 <text xmlns="http://www.w3.org/2000/svg" font-size="5.1588" id="descr" text-anchor="left" x="182.879" y="251.654" fill="#000000" font-family="Droid Sans" stroke="none" stroke-width="0">Simple LED wireing with differnt resistors and switches</text>
 <text xmlns="http://www.w3.org/2000/svg" font-size="5.1588" id="descr+" text-anchor="left" x="182.879" y="259.646" fill="#000000" font-family="Droid Sans" stroke="none" stroke-width="0"/>
 <line xmlns="http://www.w3.org/2000/svg" y1="263.642" y2="263.642" x1="179.099" x2="333.071" fill="none" stroke="black" stroke-width="0.192002"/>
 <text xmlns="http://www.w3.org/2000/svg" font-size="5.1588" id="project label" x="182.879" y="271.022" fill="#666666" font-family="'Droid Sans'" stroke="none" stroke-width="0">Project</text>
 <text xmlns="http://www.w3.org/2000/svg" font-size="6.876" id="project" text-anchor="left" x="211.067" y="271.382" fill="#000000" font-family="Droid Sans" stroke="none" stroke-width="0">Arduino Exercises</text>
 <line xmlns="http://www.w3.org/2000/svg" y1="274.442" y2="274.442" x1="179.099" x2="333.071" fill="none" stroke="black" stroke-width="0.288"/>
 <text xmlns="http://www.w3.org/2000/svg" font-size="5.1588" id="filename label" x="182.879" y="281.714" fill="#666666" font-family="'Droid Sans'" stroke="none" stroke-width="0">Filename</text>
 <text xmlns="http://www.w3.org/2000/svg" font-size="5.1588" id="filename" text-anchor="left" x="211.067" y="281.714" fill="#000000" font-family="Droid Sans" stroke="none" stroke-width="0">led_basics_part_3.fzz</text>
 <text xmlns="http://www.w3.org/2000/svg" font-size="5.1588" id="rev label" text-anchor="left" x="291.527" y="281.714" fill="#666666" font-family="Droid Sans" stroke="none" stroke-width="0">Rev</text>
 <text xmlns="http://www.w3.org/2000/svg" font-size="5.1588" id="rev" text-anchor="left" x="308.699" y="281.714" fill="#000000" font-family="Droid Sans" stroke="none" stroke-width="0">1</text>
 <line xmlns="http://www.w3.org/2000/svg" y1="285.314" y2="285.314" x1="179.099" x2="333.071" fill="none" stroke="black" stroke-width="0.288"/>
 <text xmlns="http://www.w3.org/2000/svg" font-size="5.1588" id="date label" text-anchor="left" x="182.879" y="292.226" fill="#666666" font-family="Droid Sans" stroke="none" stroke-width="0">Date</text>
 <text xmlns="http://www.w3.org/2000/svg" font-size="5.1588" id="date" text-anchor="left" x="211.067" y="292.514" fill="#000000" font-family="Droid Sans" stroke="none" stroke-width="0">15 Sep 2019 11:10:34</text>
 <text xmlns="http://www.w3.org/2000/svg" font-size="5.1588" id="sheet label" text-anchor="left" x="291.527" y="293.234" fill="#666666" font-family="Droid Sans" stroke="none" stroke-width="0">Sheet</text>
 <text xmlns="http://www.w3.org/2000/svg" font-size="5.1588" id="sheet" text-anchor="left" x="308.699" y="293.234" fill="#000000" font-family="Droid Sans" stroke="none" stroke-width="0">3/3</text>
</g>
</g><g partID='854130980'><g transform='translate(43.8689,51.0088)' ><g id="schematic">
<rect height="121.5" width="71.101" x="14.85" y="14.85" fill="#FFFFFF" stroke-linecap="round" stroke="#000000" stroke-width="0.9"/>
<line id="connector103pin" y1="28.8" y2="28.8" x1="86.05" x2="100.451" fill="none" stroke-linecap="round" stroke="#787878" stroke-width="0.75"/>
<g transform="matrix(1, 0, 0, 1, 69.3354, 29.5005)">
<text font-size="3.5" fill="#8C8C8C" font-family="'DroidSans'">D13 PWM</text>
</g>
<g height="0.7" id="connector103terminal" width="0.699" x="100.451" y="28.45" fill="none"/>
<line id="connector102pin" y1="36" y2="36" x1="86.05" x2="100.451" fill="none" stroke-linecap="round" stroke="#787878" stroke-width="0.75"/>
<g transform="matrix(1, 0, 0, 1, 71.1108, 36.6997)">
<text font-size="3.5" fill="#8C8C8C" font-family="'DroidSans'">D12/A11</text>
</g>
<g height="0.7" id="connector102terminal" width="0.699" x="100.451" y="35.65" fill="none"/>
<line id="connector101pin" y1="43.2" y2="43.2" x1="86.05" x2="100.451" fill="none" stroke-linecap="round" stroke="#787878" stroke-width="0.75"/>
<g transform="matrix(1, 0, 0, 1, 69.3354, 43.9009)">
<text font-size="3.5" fill="#8C8C8C" font-family="'DroidSans'">D11 PWM</text>
</g>
<g height="0.7" id="connector101terminal" width="0.699" x="100.451" y="42.85" fill="none"/>
<line id="connector100pin" y1="50.4" y2="50.4" x1="86.05" x2="100.451" fill="none" stroke-linecap="round" stroke="#787878" stroke-width="0.75"/>
<g transform="matrix(1, 0, 0, 1, 62.0464, 51.1001)">
<text font-size="3.5" fill="#8C8C8C" font-family="'DroidSans'">D10 PWM/A10</text>
</g>
<g height="0.7" id="connector100terminal" width="0.699" x="100.451" y="50.05" fill="none"/>
<line id="connector99pin" y1="57.6" y2="57.6" x1="86.05" x2="100.451" fill="none" stroke-linecap="round" stroke="#787878" stroke-width="0.75"/>
<g transform="matrix(1, 0, 0, 1, 65.9019, 58.3013)">
<text font-size="3.5" fill="#8C8C8C" font-family="'DroidSans'">D9 PWM/A9</text>
</g>
<g transform="matrix(1, 0, 0, 1, 74.9663, 65.5005)">
<text font-size="3.5" fill="#8C8C8C" font-family="'DroidSans'">D8/A8</text>
</g>
<g height="0.7" id="connector99terminal" width="0.699" x="100.451" y="57.25" fill="none"/>
<line id="connector98pin" y1="64.8" y2="64.8" x1="86.05" x2="100.451" fill="none" stroke-linecap="round" stroke="#787878" stroke-width="0.75"/>
<g height="0.7" id="connector98terminal" width="0.699" x="100.451" y="64.45" fill="none"/>
<line id="connector83pin" y1="72" y2="72" x1="86.05" x2="100.451" fill="none" stroke-linecap="round" stroke="#787878" stroke-width="0.75"/>
<g transform="matrix(1, 0, 0, 1, 80.3276, 72.6997)">
<text font-size="3.5" fill="#8C8C8C" font-family="'DroidSans'">D7</text>
</g>
<g height="0.7" id="connector83terminal" width="0.699" x="100.451" y="71.65" fill="none"/>
<line id="connector82pin" y1="79.2" y2="79.2" x1="86.05" x2="100.451" fill="none" stroke-linecap="round" stroke="#787878" stroke-width="0.75"/>
<g transform="matrix(1, 0, 0, 1, 65.9019, 79.9009)">
<text font-size="3.5" fill="#8C8C8C" font-family="'DroidSans'">D6 PWM/A7</text>
</g>
<g height="0.699" id="connector82terminal" width="0.699" x="100.451" y="78.85" fill="none"/>
<line id="connector81pin" y1="86.4" y2="86.4" x1="86.05" x2="100.451" fill="none" stroke-linecap="round" stroke="#787878" stroke-width="0.75"/>
<g transform="matrix(1, 0, 0, 1, 71.2632, 87.1001)">
<text font-size="3.5" fill="#8C8C8C" font-family="'DroidSans'">D5 PWM</text>
</g>
<g height="0.701" id="connector81terminal" width="0.699" x="100.451" y="86.049" fill="none"/>
<line id="connector80pin" y1="93.6" y2="93.6" x1="86.05" x2="100.451" fill="none" stroke-linecap="round" stroke="#787878" stroke-width="0.75"/>
<g transform="matrix(1, 0, 0, 1, 74.9663, 94.3022)">
<text font-size="3.5" fill="#8C8C8C" font-family="'DroidSans'">D4/A6</text>
</g>
<g height="0.699" id="connector80terminal" width="0.699" x="100.451" y="93.25" fill="none"/>
<line id="connector79pin" y1="100.799" y2="100.799" x1="86.05" x2="100.451" fill="none"/>
<g height="0.7" id="connector79terminal" width="0.699" x="100.451" y="100.45" fill="none"/>
<line id="connector107pin" y1="100.799" y2="100.799" x1="86.05" x2="100.451" fill="none" stroke-linecap="round" stroke="#787878" stroke-width="0.75"/>
<g transform="matrix(1, 0, 0, 1, 79.0034, 101.501)">
<text font-size="3.5" fill="#8C8C8C" font-family="'DroidSans'">SCL</text>
</g>
<g height="0.7" id="connector107terminal" width="0.699" x="100.451" y="100.45" fill="none"/>
<line id="connector78pin" y1="108" y2="108" x1="86.05" x2="100.451" fill="none"/>
<g height="0.7" id="connector78terminal" width="0.699" x="100.451" y="107.65" fill="none"/>
<line id="connector106pin" y1="108" y2="108" x1="86.05" x2="100.451" fill="none" stroke-linecap="round" stroke="#787878" stroke-width="0.75"/>
<g transform="matrix(1, 0, 0, 1, 78.3452, 108.7)">
<text font-size="3.5" fill="#8C8C8C" font-family="'DroidSans'">S</text>
</g>
<g transform="matrix(1, 0, 0, 1, 80.1616, 108.7)">
<text font-size="3.5" fill="#8C8C8C" font-family="'DroidSans'">D</text>
</g>
<g transform="matrix(1, 0, 0, 1, 82.522, 108.7)">
<text font-size="3.5" fill="#8C8C8C" font-family="'DroidSans'">A</text>
</g>
<g height="0.7" id="connector106terminal" width="0.699" x="100.451" y="107.65" fill="none"/>
<line id="connector77pin" y1="115.2" y2="115.2" x1="86.05" x2="100.451" fill="none" stroke-linecap="round" stroke="#787878" stroke-width="0.75"/>
<g transform="matrix(1, 0, 0, 1, 75.2905, 115.903)">
<text font-size="3.5" fill="#8C8C8C" font-family="'DroidSans'">D1/TX</text>
</g>
<g height="0.699" id="connector77terminal" width="0.699" x="100.451" y="114.85" fill="none"/>
<line id="connector76pin" y1="122.4" y2="122.4" x1="86.05" x2="100.451" fill="none" stroke-linecap="round" stroke="#787878" stroke-width="0.75"/>
<g transform="matrix(1, 0, 0, 1, 75.0425, 123.1)">
<text font-size="3.5" fill="#8C8C8C" font-family="'DroidSans'">D0/RX</text>
</g>
<g height="0.701" id="connector76terminal" width="0.699" x="100.451" y="122.049" fill="none"/>
<line id="connector105pin" y1="28.8" y2="28.8" x1="0.35" x2="14.75" fill="none" stroke-linecap="round" stroke="#787878" stroke-width="0.75"/>
<g transform="matrix(1, 0, 0, 1, 16.1504, 29.5005)">
<text font-size="3.5" fill="#8C8C8C" font-family="'DroidSans'">AREF</text>
</g>
<g transform="matrix(1, 0, 0, 1, 16.1504, 36.6997)">
<text font-size="3.5" fill="#8C8C8C" font-family="'DroidSans'">Reset</text>
</g>
<g height="0.7" id="connector105terminal" width="0.7" x="-0.35" y="28.45" fill="none"/>
<line id="connector86pin" y1="36" y2="36" x1="0.35" x2="14.75" fill="none" stroke-linecap="round" stroke="#787878" stroke-width="0.75"/>
<g height="0.7" id="connector86terminal" width="0.7" x="-0.35" y="35.65" fill="none"/>
<line id="connector84pin" y1="50.4" y2="50.4" x1="0.35" x2="14.75" fill="none" stroke-linecap="round" stroke="#787878" stroke-width="0.75"/>
<g transform="matrix(1, 0, 0, 1, 16.1504, 43.9009)">
<text font-size="3.5" fill="#8C8C8C" font-family="'DroidSans'">I</text>
</g>
<g transform="matrix(1, 0, 0, 1, 17.3022, 43.9009)">
<text font-size="3.5" fill="#8C8C8C" font-family="'DroidSans'">O</text>
</g>
<g transform="matrix(1, 0, 0, 1, 19.8999, 43.9009)">
<text font-size="3.5" fill="#8C8C8C" font-family="'DroidSans'">R</text>
</g>
<g transform="matrix(1, 0, 0, 1, 21.9644, 43.9009)">
<text font-size="3.5" fill="#8C8C8C" font-family="'DroidSans'">E</text>
</g>
<g transform="matrix(1, 0, 0, 1, 23.8115, 43.9009)">
<text font-size="3.5" fill="#8C8C8C" font-family="'DroidSans'">F</text>
</g>
<g transform="matrix(1, 0, 0, 1, 16.1504, 51.103)">
<text font-size="3.5" fill="#8C8C8C" font-family="'DroidSans'">n.c.</text>
</g>
<g height="0.7" id="connector84terminal" width="0.7" x="-0.35" y="50.05" fill="none"/>
<line id="connector85pin" y1="43.2" y2="43.2" x1="0.35" x2="14.75" fill="none" stroke-linecap="round" stroke="#787878" stroke-width="0.75"/>
<g height="0.7" id="connector85terminal" width="0.7" x="-0.35" y="42.85" fill="none"/>
<line id="connector88pin" y1="0.35" y2="14.75" x1="43.2" x2="43.2" fill="none" stroke-linecap="round" stroke="#787878" stroke-width="0.75"/>
<g height="0.7" id="connector88terminal" width="0.7" x="42.85" y="-0.35" fill="none"/>
<line id="connector92pin" y1="64.8" y2="64.8" x1="0.35" x2="14.75" fill="none" stroke-linecap="round" stroke="#787878" stroke-width="0.75"/>
<g transform="matrix(1, 0, 0, 1, 16.1504, 65.5005)">
<text font-size="3.5" fill="#8C8C8C" font-family="'DroidSans'">A0</text>
</g>
<g height="0.7" id="connector92terminal" width="0.7" x="-0.35" y="64.45" fill="none"/>
<line id="connector93pin" y1="72" y2="72" x1="0.35" x2="14.75" fill="none" stroke-linecap="round" stroke="#787878" stroke-width="0.75"/>
<g transform="matrix(1, 0, 0, 1, 16.1504, 72.6997)">
<text font-size="3.5" fill="#8C8C8C" font-family="'DroidSans'">A1</text>
</g>
<g height="0.7" id="connector93terminal" width="0.7" x="-0.35" y="71.65" fill="none"/>
<line id="connector94pin" y1="79.2" y2="79.2" x1="0.35" x2="14.75" fill="none" stroke-linecap="round" stroke="#787878" stroke-width="0.75"/>
<g transform="matrix(1, 0, 0, 1, 16.1504, 79.9009)">
<text font-size="3.5" fill="#8C8C8C" font-family="'DroidSans'">A2</text>
</g>
<g height="0.699" id="connector94terminal" width="0.7" x="-0.35" y="78.85" fill="none"/>
<line id="connector95pin" y1="86.4" y2="86.4" x1="0.35" x2="14.75" fill="none" stroke-linecap="round" stroke="#787878" stroke-width="0.75"/>
<g transform="matrix(1, 0, 0, 1, 16.1504, 87.1001)">
<text font-size="3.5" fill="#8C8C8C" font-family="'DroidSans'">A3</text>
</g>
<g height="0.701" id="connector95terminal" width="0.7" x="-0.35" y="86.049" fill="none"/>
<line id="connector96pin" y1="93.6" y2="93.6" x1="0.35" x2="14.75" fill="none" stroke-linecap="round" stroke="#787878" stroke-width="0.75"/>
<g transform="matrix(1, 0, 0, 1, 16.1504, 94.3022)">
<text font-size="3.5" fill="#8C8C8C" font-family="'DroidSans'">A4</text>
</g>
<g height="0.699" id="connector96terminal" width="0.7" x="-0.35" y="93.25" fill="none"/>
<line id="connector97pin" y1="100.799" y2="100.799" x1="0.35" x2="14.75" fill="none" stroke-linecap="round" stroke="#787878" stroke-width="0.75"/>
<g transform="matrix(1, 0, 0, 1, 16.1504, 101.501)">
<text font-size="3.5" fill="#8C8C8C" font-family="'DroidSans'">A5</text>
</g>
<g height="0.7" id="connector97terminal" width="0.7" x="-0.35" y="100.45" fill="none"/>
<line id="connector89pin" y1="136.45" y2="150.85" x1="50.4" x2="50.4" fill="none"/>
<g height="0.699" id="connector89terminal" width="0.7" x="50.05" y="150.85" fill="none"/>
<line id="connector90pin" y1="136.45" y2="150.85" x1="50.4" x2="50.4" fill="none"/>
<g height="0.699" id="connector90terminal" width="0.7" x="50.05" y="150.85" fill="none"/>
<line id="connector104pin" y1="136.45" y2="150.85" x1="50.4" x2="50.4" fill="none" stroke-linecap="round" stroke="#787878" stroke-width="0.75"/>
<g height="0.699" id="connector104terminal" width="0.7" x="50.05" y="150.85" fill="none"/>
<line id="connector87pin" y1="0.35" y2="14.75" x1="36" x2="36" fill="none" stroke-linecap="round" stroke="#787878" stroke-width="0.75"/>
<g transform="matrix(1, 0, 0, 1, 12.9469, 5.69736)">
<g>
<g transform="rotate(270)">
<g>
<g transform="matrix(1, 0, 0, 1, -16.2953, 24.2523)">
<text font-size="3.5" fill="#8C8C8C" font-family="'DroidSans'">3V3</text>
</g>
<g transform="matrix(1, 0, 0, 1, -14.4633, 31.3011)">
<text font-size="3.5" fill="#8C8C8C" font-family="'DroidSans'">5V</text>
</g>
<g transform="matrix(1, 0, 0, 1, -16.2953, 45.8846)">
<text font-size="3.5" fill="#8C8C8C" font-family="'DroidSans'">VIN</text>
</g>
</g>
</g>
</g>
</g>
<g height="0.7" id="connector87terminal" width="0.7" x="35.65" y="-0.35" fill="none"/>
<line id="connector91pin" y1="0.35" y2="14.75" x1="57.6" x2="57.6" fill="none" stroke-linecap="round" stroke="#787878" stroke-width="0.75"/>
<g height="0.7" id="connector91terminal" width="0.701" x="57.25" y="-0.35" fill="none"/>
<g transform="matrix(1, 0, 0, 1, 43.1855, 69.2505)">
<text font-size="4.25" id="label" font-family="'DroidSans'">Arduino</text>
</g>
<g transform="matrix(1, 0, 0, 1, 41.7441, 73.7837)">
<text font-size="4.25" id="label_1_" font-family="'DroidSans'">Leonardo</text>
</g>
<g transform="matrix(1, 0, 0, 1, 43.748, 78.3169)">
<text font-size="4.25" id="label_2_" font-family="'DroidSans'">(Rev3b)</text>
</g>
</g>
</g></g><g partID='854131010'><g transform='translate(212.564,79.458)' ><g transform='matrix(0,1,-1,0,0,0)'  ><g id="schematic" xmlns="http://www.w3.org/2000/svg">
<line y1="3.096" class="other" y2="0.216" x1="7.55002" xmlns="http://www.w3.org/2000/svg" x2="8.63003" stroke-linecap="round" stroke="#000000" stroke-width="0.432002"/>
<line y1="0.216" class="other" y2="5.976" x1="8.63003" xmlns="http://www.w3.org/2000/svg" x2="10.43" stroke-linecap="round" stroke="#000000" stroke-width="0.432002"/>
<line y1="5.976" class="other" y2="0.216" x1="10.43" xmlns="http://www.w3.org/2000/svg" x2="12.23" stroke-linecap="round" stroke="#000000" stroke-width="0.432002"/>
<line y1="0.216" class="other" y2="5.976" x1="12.23" xmlns="http://www.w3.org/2000/svg" x2="14.03" stroke-linecap="round" stroke="#000000" stroke-width="0.432002"/>
<line y1="5.976" class="other" y2="0.216" x1="14.03" xmlns="http://www.w3.org/2000/svg" x2="15.8301" stroke-linecap="round" stroke="#000000" stroke-width="0.432002"/>
<line y1="0.216" class="other" y2="5.976" x1="15.8301" xmlns="http://www.w3.org/2000/svg" x2="17.6301" stroke-linecap="round" stroke="#000000" stroke-width="0.432002"/>
<line y1="5.976" class="other" y2="0.216" x1="17.6301" xmlns="http://www.w3.org/2000/svg" x2="19.4301" stroke-linecap="round" stroke="#000000" stroke-width="0.432002"/>
<line y1="0.216" class="other" y2="5.976" x1="19.4301" xmlns="http://www.w3.org/2000/svg" x2="21.2301" stroke-linecap="round" stroke="#000000" stroke-width="0.432002"/>
<line y1="5.976" class="other" y2="3.096" x1="21.2301" xmlns="http://www.w3.org/2000/svg" x2="21.9501" stroke-linecap="round" stroke="#000000" stroke-width="0.432002"/>
<line id="connector1pin" connectorname="2" y1="3.096" class="pin" y2="3.096" x1="29.1502" xmlns="http://www.w3.org/2000/svg" x2="21.9501" stroke-linecap="round" stroke="#787878" stroke-width="0.700001"/>
<g height="0.000283465" id="connector1terminal" width="0.000283466" class="terminal" xmlns="http://www.w3.org/2000/svg" x="29.1502" y="3.096" fill="none" stroke="none" stroke-width="0"/>
<text font-size="2.50001" text-anchor="middle" class="text" xmlns="http://www.w3.org/2000/svg" x="25.5501" fill="#8c8c8c" y="2.046" font-family="'Droid Sans'" stroke="none" stroke-width="0">2</text>
<line id="connector0pin" connectorname="1" y1="3.096" class="pin" y2="3.096" x1="0.350001" xmlns="http://www.w3.org/2000/svg" x2="7.55002" stroke-linecap="round" stroke="#787878" stroke-width="0.700001"/>
<g height="0.000283465" id="connector0terminal" width="0.000283466" class="terminal" xmlns="http://www.w3.org/2000/svg" x="0.350001" y="3.096" fill="none" stroke="none" stroke-width="0"/>
<text font-size="2.50001" text-anchor="middle" class="text" xmlns="http://www.w3.org/2000/svg" x="3.95001" fill="#8c8c8c" y="2.046" font-family="'Droid Sans'" stroke="none" stroke-width="0">1</text>
</g>
</g></g></g><g partID='854131020'><g transform='translate(207.035,180.659)' ><g id="schematic">
<g>
<path d="M13.5,14.966L9.9,14.966c-0.193,0,-0.35,-0.156,-0.35,-0.35s0.156,-0.35,0.35,-0.35L13.5,14.266c0.193,0,0.35,0.156,0.35,0.35S13.694,14.966,13.5,14.966z"/>
</g>
<g>
<path d="M9.9,14.966L6.3,14.966c-0.193,0,-0.35,-0.156,-0.35,-0.35s0.157,-0.35,0.35,-0.35l3.6,0c0.193,0,0.35,0.156,0.35,0.35S10.093,14.966,9.9,14.966z"/>
</g>
<g>
<polygon fill="#FFFFFF" points="9.9,14.616,6.3,7.416,9.9,7.416,13.5,7.416"/>
<path d="M9.9,15.398L5.734,7.066l8.333,0L9.9,15.398zM6.866,7.766L9.9,13.834l3.034,-6.068L6.866,7.766z"/>
</g>
<g>
<path d="M9.9,14.841c-0.124,0,-0.225,-0.101,-0.225,-0.225l0,-7.2c0,-0.124,0.101,-0.225,0.225,-0.225s0.225,0.101,0.225,0.225l0,7.2C10.124,14.74,10.024,14.841,9.9,14.841z"/>
</g>
<g>
<path d="M1.8,12.141c-0.058,0,-0.115,-0.021,-0.159,-0.065c-0.088,-0.088,-0.088,-0.23,0,-0.318l2.34,-2.341c0.088,-0.088,0.23,-0.088,0.318,0s0.088,0.23,0,0.318l-2.34,2.341C1.915,12.12,1.858,12.141,1.8,12.141z"/>
</g>
<g>
<path d="M2.16,15.381c-0.058,0,-0.115,-0.021,-0.159,-0.065c-0.088,-0.088,-0.088,-0.23,0,-0.318l2.34,-2.34c0.088,-0.088,0.23,-0.088,0.318,0s0.088,0.23,0,0.318l-2.34,2.34C2.276,15.359,2.218,15.381,2.16,15.381z"/>
</g>
<g id="connector0pin">
<path d="M9.9,22.166c-0.193,0,-0.35,-0.156,-0.35,-0.35l0,-7.2c0,-0.193,0.156,-0.35,0.35,-0.35s0.35,0.156,0.35,0.35l0,7.2C10.249,22.01,10.093,22.166,9.9,22.166z" fill="#787878"/>
</g>
<g id="connector0terminal">
<rect height="0.001" width="0.001" x="9.9" y="21.816" fill="none"/>
</g>
<g transform="matrix(1, 0, 0, 1, 3.429, 6.4262)">
<g>
<g transform="rotate(270)">
<g>
<g enable-background="new    ">
<path d="M-11.647,5.54l-0.891,0L-12.538,5.388l0.342,-0.372c0.049,-0.053,0.093,-0.101,0.131,-0.145s0.071,-0.086,0.099,-0.128c0.026,-0.042,0.047,-0.084,0.062,-0.125c0.015,-0.043,0.021,-0.088,0.021,-0.138c0,-0.038,-0.005,-0.072,-0.017,-0.102s-0.027,-0.054,-0.047,-0.075c-0.021,-0.02,-0.045,-0.035,-0.073,-0.046s-0.06,-0.016,-0.094,-0.016c-0.062,0,-0.118,0.013,-0.167,0.038c-0.051,0.024,-0.098,0.057,-0.143,0.096l-0.1,-0.116c0.025,-0.023,0.055,-0.046,0.084,-0.065c0.029,-0.021,0.063,-0.039,0.097,-0.054s0.071,-0.026,0.109,-0.036c0.038,-0.008,0.079,-0.013,0.121,-0.013c0.063,0,0.119,0.009,0.169,0.026c0.051,0.018,0.094,0.043,0.129,0.076c0.035,0.032,0.063,0.072,0.082,0.119c0.019,0.048,0.028,0.101,0.028,0.16c0,0.056,-0.009,0.108,-0.026,0.158c-0.017,0.05,-0.041,0.1,-0.07,0.148c-0.031,0.048,-0.066,0.097,-0.109,0.146c-0.041,0.049,-0.087,0.1,-0.136,0.152L-12.32,5.37l0,0.008l0.673,0L-11.647,5.54z" fill="#787878"/>
</g>
</g>
</g>
</g>
</g>
<g id="connector1pin">
<path d="M9.9,7.766c-0.193,0,-0.35,-0.157,-0.35,-0.35l0,-7.2c0,-0.193,0.156,-0.35,0.35,-0.35s0.35,0.157,0.35,0.35l0,7.2C10.249,7.609,10.093,7.766,9.9,7.766z" fill="#787878"/>
</g>
<g id="connector1terminal">
<polygon fill="none" points="9.9,0.216,9.901,0.216,9.901,0.216"/>
</g>
<g transform="matrix(1, 0, 0, 1, 3.429, 1.3462)">
<g>
<g transform="rotate(270)">
<g>
<g enable-background="new    ">
<path d="M-2.616,5.54l-0.172,0L-2.788,4.648c0,-0.028,0,-0.058,0,-0.09s0.001,-0.063,0.002,-0.095c0.001,-0.032,0.002,-0.063,0.003,-0.092c0.001,-0.028,0.002,-0.054,0.002,-0.076c-0.011,0.012,-0.021,0.021,-0.029,0.03s-0.017,0.017,-0.026,0.024s-0.018,0.016,-0.028,0.025c-0.01,0.008,-0.021,0.019,-0.035,0.03l-0.145,0.118l-0.094,-0.12l0.374,-0.292l0.146,0L-2.618,5.54z" fill="#787878"/>
</g>
</g>
</g>
</g>
</g>
<g>
<path d="M0.18,13.536l1.08,-2.521l1.44,1.438L0.18,13.536z"/>
</g>
<g>
<path d="M0.54,16.776l1.08,-2.521l1.438,1.438L0.54,16.776z"/>
</g>
</g>
</g></g><g partID='854131060'><g transform='translate(87.068,223.332)' ><g id="schematic" xmlns="http://www.w3.org/2000/svg">
<path id="connector0pin" d="M7.201,7.575l0,-7.2" xmlns="http://www.w3.org/2000/svg" fill="none" stroke-linecap="round" stroke="#787878" stroke-width="0.75"/>
<g height="0.953" id="connector0terminal" width="0.945" xmlns="http://www.w3.org/2000/svg" x="6.728" y="0" fill="none"/>
<path id="path4098" d="M0.5,7.711L13.9,7.711" xmlns="http://www.w3.org/2000/svg" fill="none" stroke-linecap="round" stroke="#000000" stroke-width="0.9"/>
<path id="path4100" d="M2.732,10.456l8.935,0" xmlns="http://www.w3.org/2000/svg" fill="none" stroke-linecap="round" stroke="#000000" stroke-width="0.9"/>
<path id="path4102" d="M9.431,13.175L4.967,13.175" xmlns="http://www.w3.org/2000/svg" fill="none" stroke-linecap="round" stroke="#000000" stroke-width="0.9"/>
</g>
</g></g><g partID='854131050'><g transform='translate(209.735,223.599)' ><g id="schematic" xmlns="http://www.w3.org/2000/svg">
<path id="connector0pin" d="M7.201,7.575l0,-7.2" xmlns="http://www.w3.org/2000/svg" fill="none" stroke-linecap="round" stroke="#787878" stroke-width="0.75"/>
<g height="0.953" id="connector0terminal" width="0.945" xmlns="http://www.w3.org/2000/svg" x="6.728" y="0" fill="none"/>
<path id="path4098" d="M0.5,7.711L13.9,7.711" xmlns="http://www.w3.org/2000/svg" fill="none" stroke-linecap="round" stroke="#000000" stroke-width="0.9"/>
<path id="path4100" d="M2.732,10.456l8.935,0" xmlns="http://www.w3.org/2000/svg" fill="none" stroke-linecap="round" stroke="#000000" stroke-width="0.9"/>
<path id="path4102" d="M9.431,13.175L4.967,13.175" xmlns="http://www.w3.org/2000/svg" fill="none" stroke-linecap="round" stroke="#000000" stroke-width="0.9"/>
</g>
</g></g><g partID='854131090'><g transform='translate(79.8874,15.436)' ><g id="schematic">
<line id="connector0pin" y1="6.78" y2="13.98" stroke-miterlimit="10" x1="7.2" x2="7.2" fill="none" stroke-linecap="round" stroke="#787878" stroke-width="0.75"/>
<g id="connector0terminal" fill="none" points="6.817,13.567,7.546,13.546,7.546,14.4,6.859,14.359"/>
<path d="M0.45,6.564l13.5,0" fill="none" stroke-linecap="round" stroke="#000000" stroke-width="0.9"/>
<g transform="matrix(1, 0, 0, 1, 1.4985, 4.9878)">
<text font-size="4.4991" id="label" font-family="'DroidSans'">5V</text>
</g>
</g>
</g></g><g partID='854211670'><g transform='translate(195.337,123.787)' ><g id="schematic">
<polyline fill="none" stroke-linecap="round" stroke="#000000" points="4.125,17.557,21.6,27.474,21.6,37.743" stroke-width="0.7"/>
<polygon points="4.23,19.505,-0.022,15.188,5.819,16.8"/>
<polyline fill="none" stroke-linecap="round" stroke="#000000" points="14.401,36,14.401,34.559,11.521,32.4,18.001,28.799,11.521,25.2,18.001,21.6,11.521,18,18.001,14.4,11.521,10.8,14.401,8.64,14.401,7.2" stroke-width="0.7"/>
<g id="connector1terminal" d="M21.968,43.2l0,-1.054l-0.672,0.017L21.296,43.2L21.968,43.2z" fill="none"/>
<line id="connector1pin" y1="42.85" y2="36" x1="21.621" x2="21.621" fill="none" stroke-linecap="round" stroke="#787878" stroke-width="0.7"/>
<line id="connector0pin" y1="42.85" y2="36" x1="14.4" x2="14.4" fill="none" stroke-linecap="round" stroke="#787878" stroke-width="0.7"/>
<g id="connector0terminal" d="M14.047,42.176l0.703,0L14.719,43.2l-0.656,0L14.047,42.176z" fill="none"/>
<g transform="matrix(1, 0, 0, 1, 11.521, 40.0005)">
<text font-size="2" fill="#787878" font-family="'DroidSans'">1</text>
</g>
<g transform="matrix(1, 0, 0, 1, 19.1245, 40.0005)">
<text font-size="2" fill="#787878" font-family="'DroidSans'">3</text>
</g>
<line id="connector2pin" y1="0.35" y2="7.55" x1="14.4" x2="14.4" fill="none" stroke-linecap="round" stroke="#787878" stroke-width="0.7"/>
<g id="connector2terminal" d="M14.15,-0.25l0,0.5l0.497,-0.01l0.003,-0.49L14.15,-0.25z" fill="none"/>
<g transform="matrix(1, 0, 0, 1, 11.521, 4.9751)">
<text font-size="2" fill="#787878" font-family="'DroidSans'">2</text>
</g>
</g>
</g></g><g partID='854214910'><line stroke-linecap='round' stroke='#a37911' x1='216.935' y1='180.875' x2='216.969' y2='166.46' stroke-width='0.4' /></g><g partID='854215230'><line stroke-linecap='round' stroke='#fa50e6' x1='209.468' y1='108.608' x2='209.737' y2='123.787' stroke-width='0.4' /></g><g partID='854215270'><line stroke-linecap='round' stroke='#000000' x1='216.935' y1='224.075' x2='216.935' y2='202.475' stroke-width='0.4' /></g><g partID='854131140'><line stroke-linecap='round' stroke='#404040' x1='87.0689' y1='51.0088' x2='87.0688' y2='36.3424' stroke-width='0.699998' /></g><g partID='854131130'><line stroke-linecap='round' stroke='#404040' x1='87.0688' y1='36.3424' x2='87.0685' y2='29.4091' stroke-width='0.699998' /></g><circle  fill="black" cx="87.0688" cy="36.3424" r="1.44" stroke-width="0" stroke="none" /><g partID='854131190'><line stroke-linecap='round' stroke='#404040' x1='209.735' y1='36.8752' x2='209.468' y2='79.8081' stroke-width='0.699998' /></g><g partID='854131180'><line stroke-linecap='round' stroke='#404040' x1='87.0688' y1='36.3424' x2='209.735' y2='36.8752' stroke-width='0.699998' /></g><g partID='854179810'><line stroke-linecap='round' stroke='#404040' x1='94.5352' y1='202.475' x2='94.2688' y2='223.809' stroke-width='0.699998' /></g><g partID='854179820'><line stroke-linecap='round' stroke='#404040' x1='94.2688' y1='202.208' x2='94.5351' y2='202.475' stroke-width='0.699998' /></g><g partID='854213180'><line stroke-linecap='round' stroke='#404040' x1='209.735' y1='123.275' x2='209.468' y2='108.608' stroke-width='0.699998' /></g><g partID='854213190'><line stroke-linecap='round' stroke='#404040' x1='209.737' y1='123.787' x2='209.735' y2='123.275' stroke-width='0.699998' /></g><g partID='854213770'><line stroke-linecap='round' stroke='#404040' x1='216.969' y1='166.46' x2='216.935' y2='180.875' stroke-width='0.699998' /></g><g partID='854213900'><line stroke-linecap='round' stroke='#404040' x1='216.935' y1='224.075' x2='216.935' y2='202.475' stroke-width='0.699998' /></g><g partID='854130980' id='partLabel'><g transform='translate(144.669,45.4088)' ><g font-size='5' font-style='normal' font-weight='normal' fill='#000000' font-family="'DroidSans'" id='schematicLabel' fill-opacity='1' stroke='none' ><text x='0' y='3.75'>Part2</text></g></g></g><g partID='854131020' id='partLabel'><g transform='translate(233.915,180.792)' ><g transform='matrix(0,1,-1,0,0,0)'  ><g font-size='5' font-style='normal' font-weight='normal' fill='#000000' font-family="'DroidSans'" id='schematicLabel' fill-opacity='1' stroke='none' ><text x='0' y='3.75'>LED1</text><text x='0' y='8.75'>Red (633nm)</text></g></g></g></g><g partID='854131010' id='partLabel'><g transform='translate(226.618,89.112)' ><g transform='matrix(0,1,-1,0,0,0)'  ><g font-size='5' font-style='normal' font-weight='normal' fill='#000000' font-family="'DroidSans'" id='schematicLabel' fill-opacity='1' stroke='none' ><text x='0' y='3.75'>R1</text><text x='0' y='8.75'>220&#x3a9;</text></g></g></g></g><g partID='854211670' id='partLabel'><g transform='translate(237.337,123.787)' ><g transform='matrix(0,1,-1,0,0,0)'  ><g font-size='5' font-style='normal' font-weight='normal' fill='#000000' font-family="'DroidSans'" id='schematicLabel' fill-opacity='1' stroke='none' ><text x='0' y='3.75'>R2</text><text x='0' y='8.75'>10k&#x3a9;</text></g></g></g></g></svg>