<?xml version='1.0' encoding='UTF-8' standalone='no'?>
<!-- Created with Fritzing (http://www.fritzing.org/) -->
<svg xmlns:svg='http://www.w3.org/2000/svg' xmlns='http://www.w3.org/2000/svg' version='1.2' baseProfile='tiny' x='0in' y='0in' width='4.62598in' height='4.11319in' viewBox='0 0 333.071 296.15' >
<g partID='854105560'><g xmlns="http://www.w3.org/2000/svg" id="schematicframe">
 <rect xmlns="http://www.w3.org/2000/svg" height="295.862" width="332.783" x="0.144" y="0.144" fill="none" stroke="black" stroke-width="0.288"/>
 <rect xmlns="http://www.w3.org/2000/svg" height="52.128" width="153.684" x="179.243" y="243.878" fill="none" stroke="black" stroke-width="0.288"/>
 <text xmlns="http://www.w3.org/2000/svg" font-size="5.1588" id="descr" text-anchor="left" x="182.879" y="251.654" fill="#000000" font-family="Droid Sans" stroke="none" stroke-width="0">Simple LED wireing with differnt resistors</text>
 <text xmlns="http://www.w3.org/2000/svg" font-size="5.1588" id="descr+" text-anchor="left" x="182.879" y="259.646" fill="#000000" font-family="Droid Sans" stroke="none" stroke-width="0"/>
 <line xmlns="http://www.w3.org/2000/svg" y1="263.642" y2="263.642" x1="179.099" x2="333.071" fill="none" stroke="black" stroke-width="0.192002"/>
 <text xmlns="http://www.w3.org/2000/svg" font-size="5.1588" id="project label" x="182.879" y="271.022" fill="#666666" font-family="'Droid Sans'" stroke="none" stroke-width="0">Project</text>
 <text xmlns="http://www.w3.org/2000/svg" font-size="6.876" id="project" text-anchor="left" x="211.067" y="271.382" fill="#000000" font-family="Droid Sans" stroke="none" stroke-width="0">Arduino Exercises</text>
 <line xmlns="http://www.w3.org/2000/svg" y1="274.442" y2="274.442" x1="179.099" x2="333.071" fill="none" stroke="black" stroke-width="0.288"/>
 <text xmlns="http://www.w3.org/2000/svg" font-size="5.1588" id="filename label" x="182.879" y="281.714" fill="#666666" font-family="'Droid Sans'" stroke="none" stroke-width="0">Filename</text>
 <text xmlns="http://www.w3.org/2000/svg" font-size="5.1588" id="filename" text-anchor="left" x="211.067" y="281.714" fill="#000000" font-family="Droid Sans" stroke="none" stroke-width="0">led_basics_part_1.fzz</text>
 <text xmlns="http://www.w3.org/2000/svg" font-size="5.1588" id="rev label" text-anchor="left" x="291.527" y="281.714" fill="#666666" font-family="Droid Sans" stroke="none" stroke-width="0">Rev</text>
 <text xmlns="http://www.w3.org/2000/svg" font-size="5.1588" id="rev" text-anchor="left" x="308.699" y="281.714" fill="#000000" font-family="Droid Sans" stroke="none" stroke-width="0">1</text>
 <line xmlns="http://www.w3.org/2000/svg" y1="285.314" y2="285.314" x1="179.099" x2="333.071" fill="none" stroke="black" stroke-width="0.288"/>
 <text xmlns="http://www.w3.org/2000/svg" font-size="5.1588" id="date label" text-anchor="left" x="182.879" y="292.226" fill="#666666" font-family="Droid Sans" stroke="none" stroke-width="0">Date</text>
 <text xmlns="http://www.w3.org/2000/svg" font-size="5.1588" id="date" text-anchor="left" x="211.067" y="292.514" fill="#000000" font-family="Droid Sans" stroke="none" stroke-width="0">13 Sep 2019 11:10:34</text>
 <text xmlns="http://www.w3.org/2000/svg" font-size="5.1588" id="sheet label" text-anchor="left" x="291.527" y="293.234" fill="#666666" font-family="Droid Sans" stroke="none" stroke-width="0">Sheet</text>
 <text xmlns="http://www.w3.org/2000/svg" font-size="5.1588" id="sheet" text-anchor="left" x="308.699" y="293.234" fill="#000000" font-family="Droid Sans" stroke="none" stroke-width="0">1/3</text>
</g>
</g><g partID='854105420'><g transform='translate(42.9334,47.7334)' ><g id="schematic">
<rect height="121.5" width="71.101" x="14.85" y="14.85" fill="#FFFFFF" stroke-linecap="round" stroke="#000000" stroke-width="0.9"/>
<line id="connector103pin" y1="28.8" y2="28.8" x1="86.05" x2="100.451" fill="none" stroke-linecap="round" stroke="#787878" stroke-width="0.75"/>
<g transform="matrix(1, 0, 0, 1, 69.3354, 29.5005)">
<text font-size="3.5" fill="#8C8C8C" font-family="'DroidSans'">D13 PWM</text>
</g>
<g height="0.7" id="connector103terminal" width="0.699" x="100.451" y="28.45" fill="none"/>
<line id="connector102pin" y1="36" y2="36" x1="86.05" x2="100.451" fill="none" stroke-linecap="round" stroke="#787878" stroke-width="0.75"/>
<g transform="matrix(1, 0, 0, 1, 71.1108, 36.6997)">
<text font-size="3.5" fill="#8C8C8C" font-family="'DroidSans'">D12/A11</text>
</g>
<g height="0.7" id="connector102terminal" width="0.699" x="100.451" y="35.65" fill="none"/>
<line id="connector101pin" y1="43.2" y2="43.2" x1="86.05" x2="100.451" fill="none" stroke-linecap="round" stroke="#787878" stroke-width="0.75"/>
<g transform="matrix(1, 0, 0, 1, 69.3354, 43.9009)">
<text font-size="3.5" fill="#8C8C8C" font-family="'DroidSans'">D11 PWM</text>
</g>
<g height="0.7" id="connector101terminal" width="0.699" x="100.451" y="42.85" fill="none"/>
<line id="connector100pin" y1="50.4" y2="50.4" x1="86.05" x2="100.451" fill="none" stroke-linecap="round" stroke="#787878" stroke-width="0.75"/>
<g transform="matrix(1, 0, 0, 1, 62.0464, 51.1001)">
<text font-size="3.5" fill="#8C8C8C" font-family="'DroidSans'">D10 PWM/A10</text>
</g>
<g height="0.7" id="connector100terminal" width="0.699" x="100.451" y="50.05" fill="none"/>
<line id="connector99pin" y1="57.6" y2="57.6" x1="86.05" x2="100.451" fill="none" stroke-linecap="round" stroke="#787878" stroke-width="0.75"/>
<g transform="matrix(1, 0, 0, 1, 65.9019, 58.3013)">
<text font-size="3.5" fill="#8C8C8C" font-family="'DroidSans'">D9 PWM/A9</text>
</g>
<g transform="matrix(1, 0, 0, 1, 74.9663, 65.5005)">
<text font-size="3.5" fill="#8C8C8C" font-family="'DroidSans'">D8/A8</text>
</g>
<g height="0.7" id="connector99terminal" width="0.699" x="100.451" y="57.25" fill="none"/>
<line id="connector98pin" y1="64.8" y2="64.8" x1="86.05" x2="100.451" fill="none" stroke-linecap="round" stroke="#787878" stroke-width="0.75"/>
<g height="0.7" id="connector98terminal" width="0.699" x="100.451" y="64.45" fill="none"/>
<line id="connector83pin" y1="72" y2="72" x1="86.05" x2="100.451" fill="none" stroke-linecap="round" stroke="#787878" stroke-width="0.75"/>
<g transform="matrix(1, 0, 0, 1, 80.3276, 72.6997)">
<text font-size="3.5" fill="#8C8C8C" font-family="'DroidSans'">D7</text>
</g>
<g height="0.7" id="connector83terminal" width="0.699" x="100.451" y="71.65" fill="none"/>
<line id="connector82pin" y1="79.2" y2="79.2" x1="86.05" x2="100.451" fill="none" stroke-linecap="round" stroke="#787878" stroke-width="0.75"/>
<g transform="matrix(1, 0, 0, 1, 65.9019, 79.9009)">
<text font-size="3.5" fill="#8C8C8C" font-family="'DroidSans'">D6 PWM/A7</text>
</g>
<g height="0.699" id="connector82terminal" width="0.699" x="100.451" y="78.85" fill="none"/>
<line id="connector81pin" y1="86.4" y2="86.4" x1="86.05" x2="100.451" fill="none" stroke-linecap="round" stroke="#787878" stroke-width="0.75"/>
<g transform="matrix(1, 0, 0, 1, 71.2632, 87.1001)">
<text font-size="3.5" fill="#8C8C8C" font-family="'DroidSans'">D5 PWM</text>
</g>
<g height="0.701" id="connector81terminal" width="0.699" x="100.451" y="86.049" fill="none"/>
<line id="connector80pin" y1="93.6" y2="93.6" x1="86.05" x2="100.451" fill="none" stroke-linecap="round" stroke="#787878" stroke-width="0.75"/>
<g transform="matrix(1, 0, 0, 1, 74.9663, 94.3022)">
<text font-size="3.5" fill="#8C8C8C" font-family="'DroidSans'">D4/A6</text>
</g>
<g height="0.699" id="connector80terminal" width="0.699" x="100.451" y="93.25" fill="none"/>
<line id="connector79pin" y1="100.799" y2="100.799" x1="86.05" x2="100.451" fill="none"/>
<g height="0.7" id="connector79terminal" width="0.699" x="100.451" y="100.45" fill="none"/>
<line id="connector107pin" y1="100.799" y2="100.799" x1="86.05" x2="100.451" fill="none" stroke-linecap="round" stroke="#787878" stroke-width="0.75"/>
<g transform="matrix(1, 0, 0, 1, 79.0034, 101.501)">
<text font-size="3.5" fill="#8C8C8C" font-family="'DroidSans'">SCL</text>
</g>
<g height="0.7" id="connector107terminal" width="0.699" x="100.451" y="100.45" fill="none"/>
<line id="connector78pin" y1="108" y2="108" x1="86.05" x2="100.451" fill="none"/>
<g height="0.7" id="connector78terminal" width="0.699" x="100.451" y="107.65" fill="none"/>
<line id="connector106pin" y1="108" y2="108" x1="86.05" x2="100.451" fill="none" stroke-linecap="round" stroke="#787878" stroke-width="0.75"/>
<g transform="matrix(1, 0, 0, 1, 78.3452, 108.7)">
<text font-size="3.5" fill="#8C8C8C" font-family="'DroidSans'">S</text>
</g>
<g transform="matrix(1, 0, 0, 1, 80.1616, 108.7)">
<text font-size="3.5" fill="#8C8C8C" font-family="'DroidSans'">D</text>
</g>
<g transform="matrix(1, 0, 0, 1, 82.522, 108.7)">
<text font-size="3.5" fill="#8C8C8C" font-family="'DroidSans'">A</text>
</g>
<g height="0.7" id="connector106terminal" width="0.699" x="100.451" y="107.65" fill="none"/>
<line id="connector77pin" y1="115.2" y2="115.2" x1="86.05" x2="100.451" fill="none" stroke-linecap="round" stroke="#787878" stroke-width="0.75"/>
<g transform="matrix(1, 0, 0, 1, 75.2905, 115.903)">
<text font-size="3.5" fill="#8C8C8C" font-family="'DroidSans'">D1/TX</text>
</g>
<g height="0.699" id="connector77terminal" width="0.699" x="100.451" y="114.85" fill="none"/>
<line id="connector76pin" y1="122.4" y2="122.4" x1="86.05" x2="100.451" fill="none" stroke-linecap="round" stroke="#787878" stroke-width="0.75"/>
<g transform="matrix(1, 0, 0, 1, 75.0425, 123.1)">
<text font-size="3.5" fill="#8C8C8C" font-family="'DroidSans'">D0/RX</text>
</g>
<g height="0.701" id="connector76terminal" width="0.699" x="100.451" y="122.049" fill="none"/>
<line id="connector105pin" y1="28.8" y2="28.8" x1="0.35" x2="14.75" fill="none" stroke-linecap="round" stroke="#787878" stroke-width="0.75"/>
<g transform="matrix(1, 0, 0, 1, 16.1504, 29.5005)">
<text font-size="3.5" fill="#8C8C8C" font-family="'DroidSans'">AREF</text>
</g>
<g transform="matrix(1, 0, 0, 1, 16.1504, 36.6997)">
<text font-size="3.5" fill="#8C8C8C" font-family="'DroidSans'">Reset</text>
</g>
<g height="0.7" id="connector105terminal" width="0.7" x="-0.35" y="28.45" fill="none"/>
<line id="connector86pin" y1="36" y2="36" x1="0.35" x2="14.75" fill="none" stroke-linecap="round" stroke="#787878" stroke-width="0.75"/>
<g height="0.7" id="connector86terminal" width="0.7" x="-0.35" y="35.65" fill="none"/>
<line id="connector84pin" y1="50.4" y2="50.4" x1="0.35" x2="14.75" fill="none" stroke-linecap="round" stroke="#787878" stroke-width="0.75"/>
<g transform="matrix(1, 0, 0, 1, 16.1504, 43.9009)">
<text font-size="3.5" fill="#8C8C8C" font-family="'DroidSans'">I</text>
</g>
<g transform="matrix(1, 0, 0, 1, 17.3022, 43.9009)">
<text font-size="3.5" fill="#8C8C8C" font-family="'DroidSans'">O</text>
</g>
<g transform="matrix(1, 0, 0, 1, 19.8999, 43.9009)">
<text font-size="3.5" fill="#8C8C8C" font-family="'DroidSans'">R</text>
</g>
<g transform="matrix(1, 0, 0, 1, 21.9644, 43.9009)">
<text font-size="3.5" fill="#8C8C8C" font-family="'DroidSans'">E</text>
</g>
<g transform="matrix(1, 0, 0, 1, 23.8115, 43.9009)">
<text font-size="3.5" fill="#8C8C8C" font-family="'DroidSans'">F</text>
</g>
<g transform="matrix(1, 0, 0, 1, 16.1504, 51.103)">
<text font-size="3.5" fill="#8C8C8C" font-family="'DroidSans'">n.c.</text>
</g>
<g height="0.7" id="connector84terminal" width="0.7" x="-0.35" y="50.05" fill="none"/>
<line id="connector85pin" y1="43.2" y2="43.2" x1="0.35" x2="14.75" fill="none" stroke-linecap="round" stroke="#787878" stroke-width="0.75"/>
<g height="0.7" id="connector85terminal" width="0.7" x="-0.35" y="42.85" fill="none"/>
<line id="connector88pin" y1="0.35" y2="14.75" x1="43.2" x2="43.2" fill="none" stroke-linecap="round" stroke="#787878" stroke-width="0.75"/>
<g height="0.7" id="connector88terminal" width="0.7" x="42.85" y="-0.35" fill="none"/>
<line id="connector92pin" y1="64.8" y2="64.8" x1="0.35" x2="14.75" fill="none" stroke-linecap="round" stroke="#787878" stroke-width="0.75"/>
<g transform="matrix(1, 0, 0, 1, 16.1504, 65.5005)">
<text font-size="3.5" fill="#8C8C8C" font-family="'DroidSans'">A0</text>
</g>
<g height="0.7" id="connector92terminal" width="0.7" x="-0.35" y="64.45" fill="none"/>
<line id="connector93pin" y1="72" y2="72" x1="0.35" x2="14.75" fill="none" stroke-linecap="round" stroke="#787878" stroke-width="0.75"/>
<g transform="matrix(1, 0, 0, 1, 16.1504, 72.6997)">
<text font-size="3.5" fill="#8C8C8C" font-family="'DroidSans'">A1</text>
</g>
<g height="0.7" id="connector93terminal" width="0.7" x="-0.35" y="71.65" fill="none"/>
<line id="connector94pin" y1="79.2" y2="79.2" x1="0.35" x2="14.75" fill="none" stroke-linecap="round" stroke="#787878" stroke-width="0.75"/>
<g transform="matrix(1, 0, 0, 1, 16.1504, 79.9009)">
<text font-size="3.5" fill="#8C8C8C" font-family="'DroidSans'">A2</text>
</g>
<g height="0.699" id="connector94terminal" width="0.7" x="-0.35" y="78.85" fill="none"/>
<line id="connector95pin" y1="86.4" y2="86.4" x1="0.35" x2="14.75" fill="none" stroke-linecap="round" stroke="#787878" stroke-width="0.75"/>
<g transform="matrix(1, 0, 0, 1, 16.1504, 87.1001)">
<text font-size="3.5" fill="#8C8C8C" font-family="'DroidSans'">A3</text>
</g>
<g height="0.701" id="connector95terminal" width="0.7" x="-0.35" y="86.049" fill="none"/>
<line id="connector96pin" y1="93.6" y2="93.6" x1="0.35" x2="14.75" fill="none" stroke-linecap="round" stroke="#787878" stroke-width="0.75"/>
<g transform="matrix(1, 0, 0, 1, 16.1504, 94.3022)">
<text font-size="3.5" fill="#8C8C8C" font-family="'DroidSans'">A4</text>
</g>
<g height="0.699" id="connector96terminal" width="0.7" x="-0.35" y="93.25" fill="none"/>
<line id="connector97pin" y1="100.799" y2="100.799" x1="0.35" x2="14.75" fill="none" stroke-linecap="round" stroke="#787878" stroke-width="0.75"/>
<g transform="matrix(1, 0, 0, 1, 16.1504, 101.501)">
<text font-size="3.5" fill="#8C8C8C" font-family="'DroidSans'">A5</text>
</g>
<g height="0.7" id="connector97terminal" width="0.7" x="-0.35" y="100.45" fill="none"/>
<line id="connector89pin" y1="136.45" y2="150.85" x1="50.4" x2="50.4" fill="none"/>
<g height="0.699" id="connector89terminal" width="0.7" x="50.05" y="150.85" fill="none"/>
<line id="connector90pin" y1="136.45" y2="150.85" x1="50.4" x2="50.4" fill="none"/>
<g height="0.699" id="connector90terminal" width="0.7" x="50.05" y="150.85" fill="none"/>
<line id="connector104pin" y1="136.45" y2="150.85" x1="50.4" x2="50.4" fill="none" stroke-linecap="round" stroke="#787878" stroke-width="0.75"/>
<g height="0.699" id="connector104terminal" width="0.7" x="50.05" y="150.85" fill="none"/>
<line id="connector87pin" y1="0.35" y2="14.75" x1="36" x2="36" fill="none" stroke-linecap="round" stroke="#787878" stroke-width="0.75"/>
<g transform="matrix(1, 0, 0, 1, 12.9469, 5.69736)">
<g>
<g transform="rotate(270)">
<g>
<g transform="matrix(1, 0, 0, 1, -16.2953, 24.2523)">
<text font-size="3.5" fill="#8C8C8C" font-family="'DroidSans'">3V3</text>
</g>
<g transform="matrix(1, 0, 0, 1, -14.4633, 31.3011)">
<text font-size="3.5" fill="#8C8C8C" font-family="'DroidSans'">5V</text>
</g>
<g transform="matrix(1, 0, 0, 1, -16.2953, 45.8846)">
<text font-size="3.5" fill="#8C8C8C" font-family="'DroidSans'">VIN</text>
</g>
</g>
</g>
</g>
</g>
<g height="0.7" id="connector87terminal" width="0.7" x="35.65" y="-0.35" fill="none"/>
<line id="connector91pin" y1="0.35" y2="14.75" x1="57.6" x2="57.6" fill="none" stroke-linecap="round" stroke="#787878" stroke-width="0.75"/>
<g height="0.7" id="connector91terminal" width="0.701" x="57.25" y="-0.35" fill="none"/>
<g transform="matrix(1, 0, 0, 1, 43.1855, 69.2505)">
<text font-size="4.25" id="label" font-family="'DroidSans'">Arduino</text>
</g>
<g transform="matrix(1, 0, 0, 1, 41.7441, 73.7837)">
<text font-size="4.25" id="label_1_" font-family="'DroidSans'">Leonardo</text>
</g>
<g transform="matrix(1, 0, 0, 1, 43.748, 78.3169)">
<text font-size="4.25" id="label_2_" font-family="'DroidSans'">(Rev3b)</text>
</g>
</g>
</g></g><g partID='854106260'><g transform='translate(283.629,76.1828)' ><g transform='matrix(0,1,-1,0,0,0)'  ><g id="schematic" xmlns="http://www.w3.org/2000/svg">
<line y1="3.096" class="other" y2="0.216" x1="7.55002" xmlns="http://www.w3.org/2000/svg" x2="8.63003" stroke-linecap="round" stroke="#000000" stroke-width="0.432002"/>
<line y1="0.216" class="other" y2="5.976" x1="8.63003" xmlns="http://www.w3.org/2000/svg" x2="10.43" stroke-linecap="round" stroke="#000000" stroke-width="0.432002"/>
<line y1="5.976" class="other" y2="0.216" x1="10.43" xmlns="http://www.w3.org/2000/svg" x2="12.23" stroke-linecap="round" stroke="#000000" stroke-width="0.432002"/>
<line y1="0.216" class="other" y2="5.976" x1="12.23" xmlns="http://www.w3.org/2000/svg" x2="14.03" stroke-linecap="round" stroke="#000000" stroke-width="0.432002"/>
<line y1="5.976" class="other" y2="0.216" x1="14.03" xmlns="http://www.w3.org/2000/svg" x2="15.8301" stroke-linecap="round" stroke="#000000" stroke-width="0.432002"/>
<line y1="0.216" class="other" y2="5.976" x1="15.8301" xmlns="http://www.w3.org/2000/svg" x2="17.6301" stroke-linecap="round" stroke="#000000" stroke-width="0.432002"/>
<line y1="5.976" class="other" y2="0.216" x1="17.6301" xmlns="http://www.w3.org/2000/svg" x2="19.4301" stroke-linecap="round" stroke="#000000" stroke-width="0.432002"/>
<line y1="0.216" class="other" y2="5.976" x1="19.4301" xmlns="http://www.w3.org/2000/svg" x2="21.2301" stroke-linecap="round" stroke="#000000" stroke-width="0.432002"/>
<line y1="5.976" class="other" y2="3.096" x1="21.2301" xmlns="http://www.w3.org/2000/svg" x2="21.9501" stroke-linecap="round" stroke="#000000" stroke-width="0.432002"/>
<line id="connector1pin" connectorname="2" y1="3.096" class="pin" y2="3.096" x1="29.1502" xmlns="http://www.w3.org/2000/svg" x2="21.9501" stroke-linecap="round" stroke="#787878" stroke-width="0.700001"/>
<g height="0.000283465" id="connector1terminal" width="0.000283466" class="terminal" xmlns="http://www.w3.org/2000/svg" x="29.1502" y="3.096" fill="none" stroke="none" stroke-width="0"/>
<text font-size="2.50001" text-anchor="middle" class="text" xmlns="http://www.w3.org/2000/svg" x="25.5501" fill="#8c8c8c" y="2.046" font-family="'Droid Sans'" stroke="none" stroke-width="0">2</text>
<line id="connector0pin" connectorname="1" y1="3.096" class="pin" y2="3.096" x1="0.350001" xmlns="http://www.w3.org/2000/svg" x2="7.55002" stroke-linecap="round" stroke="#787878" stroke-width="0.700001"/>
<g height="0.000283465" id="connector0terminal" width="0.000283466" class="terminal" xmlns="http://www.w3.org/2000/svg" x="0.350001" y="3.096" fill="none" stroke="none" stroke-width="0"/>
<text font-size="2.50001" text-anchor="middle" class="text" xmlns="http://www.w3.org/2000/svg" x="3.95001" fill="#8c8c8c" y="2.046" font-family="'Droid Sans'" stroke="none" stroke-width="0">1</text>
</g>
</g></g></g><g partID='854106220'><g transform='translate(247.629,76.1828)' ><g transform='matrix(0,1,-1,0,0,0)'  ><g id="schematic" xmlns="http://www.w3.org/2000/svg">
<line y1="3.096" class="other" y2="0.216" x1="7.55002" xmlns="http://www.w3.org/2000/svg" x2="8.63003" stroke-linecap="round" stroke="#000000" stroke-width="0.432002"/>
<line y1="0.216" class="other" y2="5.976" x1="8.63003" xmlns="http://www.w3.org/2000/svg" x2="10.43" stroke-linecap="round" stroke="#000000" stroke-width="0.432002"/>
<line y1="5.976" class="other" y2="0.216" x1="10.43" xmlns="http://www.w3.org/2000/svg" x2="12.23" stroke-linecap="round" stroke="#000000" stroke-width="0.432002"/>
<line y1="0.216" class="other" y2="5.976" x1="12.23" xmlns="http://www.w3.org/2000/svg" x2="14.03" stroke-linecap="round" stroke="#000000" stroke-width="0.432002"/>
<line y1="5.976" class="other" y2="0.216" x1="14.03" xmlns="http://www.w3.org/2000/svg" x2="15.8301" stroke-linecap="round" stroke="#000000" stroke-width="0.432002"/>
<line y1="0.216" class="other" y2="5.976" x1="15.8301" xmlns="http://www.w3.org/2000/svg" x2="17.6301" stroke-linecap="round" stroke="#000000" stroke-width="0.432002"/>
<line y1="5.976" class="other" y2="0.216" x1="17.6301" xmlns="http://www.w3.org/2000/svg" x2="19.4301" stroke-linecap="round" stroke="#000000" stroke-width="0.432002"/>
<line y1="0.216" class="other" y2="5.976" x1="19.4301" xmlns="http://www.w3.org/2000/svg" x2="21.2301" stroke-linecap="round" stroke="#000000" stroke-width="0.432002"/>
<line y1="5.976" class="other" y2="3.096" x1="21.2301" xmlns="http://www.w3.org/2000/svg" x2="21.9501" stroke-linecap="round" stroke="#000000" stroke-width="0.432002"/>
<line id="connector1pin" connectorname="2" y1="3.096" class="pin" y2="3.096" x1="29.1502" xmlns="http://www.w3.org/2000/svg" x2="21.9501" stroke-linecap="round" stroke="#787878" stroke-width="0.700001"/>
<g height="0.000283465" id="connector1terminal" width="0.000283466" class="terminal" xmlns="http://www.w3.org/2000/svg" x="29.1502" y="3.096" fill="none" stroke="none" stroke-width="0"/>
<text font-size="2.50001" text-anchor="middle" class="text" xmlns="http://www.w3.org/2000/svg" x="25.5501" fill="#8c8c8c" y="2.046" font-family="'Droid Sans'" stroke="none" stroke-width="0">2</text>
<line id="connector0pin" connectorname="1" y1="3.096" class="pin" y2="3.096" x1="0.350001" xmlns="http://www.w3.org/2000/svg" x2="7.55002" stroke-linecap="round" stroke="#787878" stroke-width="0.700001"/>
<g height="0.000283465" id="connector0terminal" width="0.000283466" class="terminal" xmlns="http://www.w3.org/2000/svg" x="0.350001" y="3.096" fill="none" stroke="none" stroke-width="0"/>
<text font-size="2.50001" text-anchor="middle" class="text" xmlns="http://www.w3.org/2000/svg" x="3.95001" fill="#8c8c8c" y="2.046" font-family="'Droid Sans'" stroke="none" stroke-width="0">1</text>
</g>
</g></g></g><g partID='854105450'><g transform='translate(211.896,76.45)' ><g transform='matrix(0,1,-1,0,0,0)'  ><g id="schematic" xmlns="http://www.w3.org/2000/svg">
<line y1="3.096" class="other" y2="0.216" x1="7.55002" xmlns="http://www.w3.org/2000/svg" x2="8.63003" stroke-linecap="round" stroke="#000000" stroke-width="0.432002"/>
<line y1="0.216" class="other" y2="5.976" x1="8.63003" xmlns="http://www.w3.org/2000/svg" x2="10.43" stroke-linecap="round" stroke="#000000" stroke-width="0.432002"/>
<line y1="5.976" class="other" y2="0.216" x1="10.43" xmlns="http://www.w3.org/2000/svg" x2="12.23" stroke-linecap="round" stroke="#000000" stroke-width="0.432002"/>
<line y1="0.216" class="other" y2="5.976" x1="12.23" xmlns="http://www.w3.org/2000/svg" x2="14.03" stroke-linecap="round" stroke="#000000" stroke-width="0.432002"/>
<line y1="5.976" class="other" y2="0.216" x1="14.03" xmlns="http://www.w3.org/2000/svg" x2="15.8301" stroke-linecap="round" stroke="#000000" stroke-width="0.432002"/>
<line y1="0.216" class="other" y2="5.976" x1="15.8301" xmlns="http://www.w3.org/2000/svg" x2="17.6301" stroke-linecap="round" stroke="#000000" stroke-width="0.432002"/>
<line y1="5.976" class="other" y2="0.216" x1="17.6301" xmlns="http://www.w3.org/2000/svg" x2="19.4301" stroke-linecap="round" stroke="#000000" stroke-width="0.432002"/>
<line y1="0.216" class="other" y2="5.976" x1="19.4301" xmlns="http://www.w3.org/2000/svg" x2="21.2301" stroke-linecap="round" stroke="#000000" stroke-width="0.432002"/>
<line y1="5.976" class="other" y2="3.096" x1="21.2301" xmlns="http://www.w3.org/2000/svg" x2="21.9501" stroke-linecap="round" stroke="#000000" stroke-width="0.432002"/>
<line id="connector1pin" connectorname="2" y1="3.096" class="pin" y2="3.096" x1="29.1502" xmlns="http://www.w3.org/2000/svg" x2="21.9501" stroke-linecap="round" stroke="#787878" stroke-width="0.700001"/>
<g height="0.000283465" id="connector1terminal" width="0.000283466" class="terminal" xmlns="http://www.w3.org/2000/svg" x="29.1502" y="3.096" fill="none" stroke="none" stroke-width="0"/>
<text font-size="2.50001" text-anchor="middle" class="text" xmlns="http://www.w3.org/2000/svg" x="25.5501" fill="#8c8c8c" y="2.046" font-family="'Droid Sans'" stroke="none" stroke-width="0">2</text>
<line id="connector0pin" connectorname="1" y1="3.096" class="pin" y2="3.096" x1="0.350001" xmlns="http://www.w3.org/2000/svg" x2="7.55002" stroke-linecap="round" stroke="#787878" stroke-width="0.700001"/>
<g height="0.000283465" id="connector0terminal" width="0.000283466" class="terminal" xmlns="http://www.w3.org/2000/svg" x="0.350001" y="3.096" fill="none" stroke="none" stroke-width="0"/>
<text font-size="2.50001" text-anchor="middle" class="text" xmlns="http://www.w3.org/2000/svg" x="3.95001" fill="#8c8c8c" y="2.046" font-family="'Droid Sans'" stroke="none" stroke-width="0">1</text>
</g>
</g></g></g><g partID='854121890'><g transform='translate(234.899,119.783)' ><g id="schematic">
<g>
<path d="M13.5,14.966L9.9,14.966c-0.193,0,-0.35,-0.156,-0.35,-0.35s0.156,-0.35,0.35,-0.35L13.5,14.266c0.193,0,0.35,0.156,0.35,0.35S13.694,14.966,13.5,14.966z"/>
</g>
<g>
<path d="M9.9,14.966L6.3,14.966c-0.193,0,-0.35,-0.156,-0.35,-0.35s0.157,-0.35,0.35,-0.35l3.6,0c0.193,0,0.35,0.156,0.35,0.35S10.093,14.966,9.9,14.966z"/>
</g>
<g>
<polygon fill="#FFFFFF" points="9.9,14.616,6.3,7.416,9.9,7.416,13.5,7.416"/>
<path d="M9.9,15.398L5.734,7.066l8.333,0L9.9,15.398zM6.866,7.766L9.9,13.834l3.034,-6.068L6.866,7.766z"/>
</g>
<g>
<path d="M9.9,14.841c-0.124,0,-0.225,-0.101,-0.225,-0.225l0,-7.2c0,-0.124,0.101,-0.225,0.225,-0.225s0.225,0.101,0.225,0.225l0,7.2C10.124,14.74,10.024,14.841,9.9,14.841z"/>
</g>
<g>
<path d="M1.8,12.141c-0.058,0,-0.115,-0.021,-0.159,-0.065c-0.088,-0.088,-0.088,-0.23,0,-0.318l2.34,-2.341c0.088,-0.088,0.23,-0.088,0.318,0s0.088,0.23,0,0.318l-2.34,2.341C1.915,12.12,1.858,12.141,1.8,12.141z"/>
</g>
<g>
<path d="M2.16,15.381c-0.058,0,-0.115,-0.021,-0.159,-0.065c-0.088,-0.088,-0.088,-0.23,0,-0.318l2.34,-2.34c0.088,-0.088,0.23,-0.088,0.318,0s0.088,0.23,0,0.318l-2.34,2.34C2.276,15.359,2.218,15.381,2.16,15.381z"/>
</g>
<g id="connector0pin">
<path d="M9.9,22.166c-0.193,0,-0.35,-0.156,-0.35,-0.35l0,-7.2c0,-0.193,0.156,-0.35,0.35,-0.35s0.35,0.156,0.35,0.35l0,7.2C10.249,22.01,10.093,22.166,9.9,22.166z" fill="#787878"/>
</g>
<g id="connector0terminal">
<rect height="0.001" width="0.001" x="9.9" y="21.816" fill="none"/>
</g>
<g transform="matrix(1, 0, 0, 1, 3.429, 6.4262)">
<g>
<g transform="rotate(270)">
<g>
<g enable-background="new    ">
<path d="M-11.647,5.54l-0.891,0L-12.538,5.388l0.342,-0.372c0.049,-0.053,0.093,-0.101,0.131,-0.145s0.071,-0.086,0.099,-0.128c0.026,-0.042,0.047,-0.084,0.062,-0.125c0.015,-0.043,0.021,-0.088,0.021,-0.138c0,-0.038,-0.005,-0.072,-0.017,-0.102s-0.027,-0.054,-0.047,-0.075c-0.021,-0.02,-0.045,-0.035,-0.073,-0.046s-0.06,-0.016,-0.094,-0.016c-0.062,0,-0.118,0.013,-0.167,0.038c-0.051,0.024,-0.098,0.057,-0.143,0.096l-0.1,-0.116c0.025,-0.023,0.055,-0.046,0.084,-0.065c0.029,-0.021,0.063,-0.039,0.097,-0.054s0.071,-0.026,0.109,-0.036c0.038,-0.008,0.079,-0.013,0.121,-0.013c0.063,0,0.119,0.009,0.169,0.026c0.051,0.018,0.094,0.043,0.129,0.076c0.035,0.032,0.063,0.072,0.082,0.119c0.019,0.048,0.028,0.101,0.028,0.16c0,0.056,-0.009,0.108,-0.026,0.158c-0.017,0.05,-0.041,0.1,-0.07,0.148c-0.031,0.048,-0.066,0.097,-0.109,0.146c-0.041,0.049,-0.087,0.1,-0.136,0.152L-12.32,5.37l0,0.008l0.673,0L-11.647,5.54z" fill="#787878"/>
</g>
</g>
</g>
</g>
</g>
<g id="connector1pin">
<path d="M9.9,7.766c-0.193,0,-0.35,-0.157,-0.35,-0.35l0,-7.2c0,-0.193,0.156,-0.35,0.35,-0.35s0.35,0.157,0.35,0.35l0,7.2C10.249,7.609,10.093,7.766,9.9,7.766z" fill="#787878"/>
</g>
<g id="connector1terminal">
<polygon fill="none" points="9.9,0.216,9.901,0.216,9.901,0.216"/>
</g>
<g transform="matrix(1, 0, 0, 1, 3.429, 1.3462)">
<g>
<g transform="rotate(270)">
<g>
<g enable-background="new    ">
<path d="M-2.616,5.54l-0.172,0L-2.788,4.648c0,-0.028,0,-0.058,0,-0.09s0.001,-0.063,0.002,-0.095c0.001,-0.032,0.002,-0.063,0.003,-0.092c0.001,-0.028,0.002,-0.054,0.002,-0.076c-0.011,0.012,-0.021,0.021,-0.029,0.03s-0.017,0.017,-0.026,0.024s-0.018,0.016,-0.028,0.025c-0.01,0.008,-0.021,0.019,-0.035,0.03l-0.145,0.118l-0.094,-0.12l0.374,-0.292l0.146,0L-2.618,5.54z" fill="#787878"/>
</g>
</g>
</g>
</g>
</g>
<g>
<path d="M0.18,13.536l1.08,-2.521l1.44,1.438L0.18,13.536z"/>
</g>
<g>
<path d="M0.54,16.776l1.08,-2.521l1.438,1.438L0.54,16.776z"/>
</g>
</g>
</g></g><g partID='854121430'><g transform='translate(270.899,119.783)' ><g id="schematic">
<g>
<path d="M13.5,14.966L9.9,14.966c-0.193,0,-0.35,-0.156,-0.35,-0.35s0.156,-0.35,0.35,-0.35L13.5,14.266c0.193,0,0.35,0.156,0.35,0.35S13.694,14.966,13.5,14.966z"/>
</g>
<g>
<path d="M9.9,14.966L6.3,14.966c-0.193,0,-0.35,-0.156,-0.35,-0.35s0.157,-0.35,0.35,-0.35l3.6,0c0.193,0,0.35,0.156,0.35,0.35S10.093,14.966,9.9,14.966z"/>
</g>
<g>
<polygon fill="#FFFFFF" points="9.9,14.616,6.3,7.416,9.9,7.416,13.5,7.416"/>
<path d="M9.9,15.398L5.734,7.066l8.333,0L9.9,15.398zM6.866,7.766L9.9,13.834l3.034,-6.068L6.866,7.766z"/>
</g>
<g>
<path d="M9.9,14.841c-0.124,0,-0.225,-0.101,-0.225,-0.225l0,-7.2c0,-0.124,0.101,-0.225,0.225,-0.225s0.225,0.101,0.225,0.225l0,7.2C10.124,14.74,10.024,14.841,9.9,14.841z"/>
</g>
<g>
<path d="M1.8,12.141c-0.058,0,-0.115,-0.021,-0.159,-0.065c-0.088,-0.088,-0.088,-0.23,0,-0.318l2.34,-2.341c0.088,-0.088,0.23,-0.088,0.318,0s0.088,0.23,0,0.318l-2.34,2.341C1.915,12.12,1.858,12.141,1.8,12.141z"/>
</g>
<g>
<path d="M2.16,15.381c-0.058,0,-0.115,-0.021,-0.159,-0.065c-0.088,-0.088,-0.088,-0.23,0,-0.318l2.34,-2.34c0.088,-0.088,0.23,-0.088,0.318,0s0.088,0.23,0,0.318l-2.34,2.34C2.276,15.359,2.218,15.381,2.16,15.381z"/>
</g>
<g id="connector0pin">
<path d="M9.9,22.166c-0.193,0,-0.35,-0.156,-0.35,-0.35l0,-7.2c0,-0.193,0.156,-0.35,0.35,-0.35s0.35,0.156,0.35,0.35l0,7.2C10.249,22.01,10.093,22.166,9.9,22.166z" fill="#787878"/>
</g>
<g id="connector0terminal">
<rect height="0.001" width="0.001" x="9.9" y="21.816" fill="none"/>
</g>
<g transform="matrix(1, 0, 0, 1, 3.429, 6.4262)">
<g>
<g transform="rotate(270)">
<g>
<g enable-background="new    ">
<path d="M-11.647,5.54l-0.891,0L-12.538,5.388l0.342,-0.372c0.049,-0.053,0.093,-0.101,0.131,-0.145s0.071,-0.086,0.099,-0.128c0.026,-0.042,0.047,-0.084,0.062,-0.125c0.015,-0.043,0.021,-0.088,0.021,-0.138c0,-0.038,-0.005,-0.072,-0.017,-0.102s-0.027,-0.054,-0.047,-0.075c-0.021,-0.02,-0.045,-0.035,-0.073,-0.046s-0.06,-0.016,-0.094,-0.016c-0.062,0,-0.118,0.013,-0.167,0.038c-0.051,0.024,-0.098,0.057,-0.143,0.096l-0.1,-0.116c0.025,-0.023,0.055,-0.046,0.084,-0.065c0.029,-0.021,0.063,-0.039,0.097,-0.054s0.071,-0.026,0.109,-0.036c0.038,-0.008,0.079,-0.013,0.121,-0.013c0.063,0,0.119,0.009,0.169,0.026c0.051,0.018,0.094,0.043,0.129,0.076c0.035,0.032,0.063,0.072,0.082,0.119c0.019,0.048,0.028,0.101,0.028,0.16c0,0.056,-0.009,0.108,-0.026,0.158c-0.017,0.05,-0.041,0.1,-0.07,0.148c-0.031,0.048,-0.066,0.097,-0.109,0.146c-0.041,0.049,-0.087,0.1,-0.136,0.152L-12.32,5.37l0,0.008l0.673,0L-11.647,5.54z" fill="#787878"/>
</g>
</g>
</g>
</g>
</g>
<g id="connector1pin">
<path d="M9.9,7.766c-0.193,0,-0.35,-0.157,-0.35,-0.35l0,-7.2c0,-0.193,0.156,-0.35,0.35,-0.35s0.35,0.157,0.35,0.35l0,7.2C10.249,7.609,10.093,7.766,9.9,7.766z" fill="#787878"/>
</g>
<g id="connector1terminal">
<polygon fill="none" points="9.9,0.216,9.901,0.216,9.901,0.216"/>
</g>
<g transform="matrix(1, 0, 0, 1, 3.429, 1.3462)">
<g>
<g transform="rotate(270)">
<g>
<g enable-background="new    ">
<path d="M-2.616,5.54l-0.172,0L-2.788,4.648c0,-0.028,0,-0.058,0,-0.09s0.001,-0.063,0.002,-0.095c0.001,-0.032,0.002,-0.063,0.003,-0.092c0.001,-0.028,0.002,-0.054,0.002,-0.076c-0.011,0.012,-0.021,0.021,-0.029,0.03s-0.017,0.017,-0.026,0.024s-0.018,0.016,-0.028,0.025c-0.01,0.008,-0.021,0.019,-0.035,0.03l-0.145,0.118l-0.094,-0.12l0.374,-0.292l0.146,0L-2.618,5.54z" fill="#787878"/>
</g>
</g>
</g>
</g>
</g>
<g>
<path d="M0.18,13.536l1.08,-2.521l1.44,1.438L0.18,13.536z"/>
</g>
<g>
<path d="M0.54,16.776l1.08,-2.521l1.438,1.438L0.54,16.776z"/>
</g>
</g>
</g></g><g partID='854105480'><g transform='translate(198.899,119.783)' ><g id="schematic">
<g>
<path d="M13.5,14.966L9.9,14.966c-0.193,0,-0.35,-0.156,-0.35,-0.35s0.156,-0.35,0.35,-0.35L13.5,14.266c0.193,0,0.35,0.156,0.35,0.35S13.694,14.966,13.5,14.966z"/>
</g>
<g>
<path d="M9.9,14.966L6.3,14.966c-0.193,0,-0.35,-0.156,-0.35,-0.35s0.157,-0.35,0.35,-0.35l3.6,0c0.193,0,0.35,0.156,0.35,0.35S10.093,14.966,9.9,14.966z"/>
</g>
<g>
<polygon fill="#FFFFFF" points="9.9,14.616,6.3,7.416,9.9,7.416,13.5,7.416"/>
<path d="M9.9,15.398L5.734,7.066l8.333,0L9.9,15.398zM6.866,7.766L9.9,13.834l3.034,-6.068L6.866,7.766z"/>
</g>
<g>
<path d="M9.9,14.841c-0.124,0,-0.225,-0.101,-0.225,-0.225l0,-7.2c0,-0.124,0.101,-0.225,0.225,-0.225s0.225,0.101,0.225,0.225l0,7.2C10.124,14.74,10.024,14.841,9.9,14.841z"/>
</g>
<g>
<path d="M1.8,12.141c-0.058,0,-0.115,-0.021,-0.159,-0.065c-0.088,-0.088,-0.088,-0.23,0,-0.318l2.34,-2.341c0.088,-0.088,0.23,-0.088,0.318,0s0.088,0.23,0,0.318l-2.34,2.341C1.915,12.12,1.858,12.141,1.8,12.141z"/>
</g>
<g>
<path d="M2.16,15.381c-0.058,0,-0.115,-0.021,-0.159,-0.065c-0.088,-0.088,-0.088,-0.23,0,-0.318l2.34,-2.34c0.088,-0.088,0.23,-0.088,0.318,0s0.088,0.23,0,0.318l-2.34,2.34C2.276,15.359,2.218,15.381,2.16,15.381z"/>
</g>
<g id="connector0pin">
<path d="M9.9,22.166c-0.193,0,-0.35,-0.156,-0.35,-0.35l0,-7.2c0,-0.193,0.156,-0.35,0.35,-0.35s0.35,0.156,0.35,0.35l0,7.2C10.249,22.01,10.093,22.166,9.9,22.166z" fill="#787878"/>
</g>
<g id="connector0terminal">
<rect height="0.001" width="0.001" x="9.9" y="21.816" fill="none"/>
</g>
<g transform="matrix(1, 0, 0, 1, 3.429, 6.4262)">
<g>
<g transform="rotate(270)">
<g>
<g enable-background="new    ">
<path d="M-11.647,5.54l-0.891,0L-12.538,5.388l0.342,-0.372c0.049,-0.053,0.093,-0.101,0.131,-0.145s0.071,-0.086,0.099,-0.128c0.026,-0.042,0.047,-0.084,0.062,-0.125c0.015,-0.043,0.021,-0.088,0.021,-0.138c0,-0.038,-0.005,-0.072,-0.017,-0.102s-0.027,-0.054,-0.047,-0.075c-0.021,-0.02,-0.045,-0.035,-0.073,-0.046s-0.06,-0.016,-0.094,-0.016c-0.062,0,-0.118,0.013,-0.167,0.038c-0.051,0.024,-0.098,0.057,-0.143,0.096l-0.1,-0.116c0.025,-0.023,0.055,-0.046,0.084,-0.065c0.029,-0.021,0.063,-0.039,0.097,-0.054s0.071,-0.026,0.109,-0.036c0.038,-0.008,0.079,-0.013,0.121,-0.013c0.063,0,0.119,0.009,0.169,0.026c0.051,0.018,0.094,0.043,0.129,0.076c0.035,0.032,0.063,0.072,0.082,0.119c0.019,0.048,0.028,0.101,0.028,0.16c0,0.056,-0.009,0.108,-0.026,0.158c-0.017,0.05,-0.041,0.1,-0.07,0.148c-0.031,0.048,-0.066,0.097,-0.109,0.146c-0.041,0.049,-0.087,0.1,-0.136,0.152L-12.32,5.37l0,0.008l0.673,0L-11.647,5.54z" fill="#787878"/>
</g>
</g>
</g>
</g>
</g>
<g id="connector1pin">
<path d="M9.9,7.766c-0.193,0,-0.35,-0.157,-0.35,-0.35l0,-7.2c0,-0.193,0.156,-0.35,0.35,-0.35s0.35,0.157,0.35,0.35l0,7.2C10.249,7.609,10.093,7.766,9.9,7.766z" fill="#787878"/>
</g>
<g id="connector1terminal">
<polygon fill="none" points="9.9,0.216,9.901,0.216,9.901,0.216"/>
</g>
<g transform="matrix(1, 0, 0, 1, 3.429, 1.3462)">
<g>
<g transform="rotate(270)">
<g>
<g enable-background="new    ">
<path d="M-2.616,5.54l-0.172,0L-2.788,4.648c0,-0.028,0,-0.058,0,-0.09s0.001,-0.063,0.002,-0.095c0.001,-0.032,0.002,-0.063,0.003,-0.092c0.001,-0.028,0.002,-0.054,0.002,-0.076c-0.011,0.012,-0.021,0.021,-0.029,0.03s-0.017,0.017,-0.026,0.024s-0.018,0.016,-0.028,0.025c-0.01,0.008,-0.021,0.019,-0.035,0.03l-0.145,0.118l-0.094,-0.12l0.374,-0.292l0.146,0L-2.618,5.54z" fill="#787878"/>
</g>
</g>
</g>
</g>
</g>
<g>
<path d="M0.18,13.536l1.08,-2.521l1.44,1.438L0.18,13.536z"/>
</g>
<g>
<path d="M0.54,16.776l1.08,-2.521l1.438,1.438L0.54,16.776z"/>
</g>
</g>
</g></g><g partID='854106370'><g transform='translate(273.333,220.057)' ><g id="schematic" xmlns="http://www.w3.org/2000/svg">
<path id="connector0pin" d="M7.201,7.575l0,-7.2" xmlns="http://www.w3.org/2000/svg" fill="none" stroke-linecap="round" stroke="#787878" stroke-width="0.75"/>
<g height="0.953" id="connector0terminal" width="0.945" xmlns="http://www.w3.org/2000/svg" x="6.728" y="0" fill="none"/>
<path id="path4098" d="M0.5,7.711L13.9,7.711" xmlns="http://www.w3.org/2000/svg" fill="none" stroke-linecap="round" stroke="#000000" stroke-width="0.9"/>
<path id="path4100" d="M2.732,10.456l8.935,0" xmlns="http://www.w3.org/2000/svg" fill="none" stroke-linecap="round" stroke="#000000" stroke-width="0.9"/>
<path id="path4102" d="M9.431,13.175L4.967,13.175" xmlns="http://www.w3.org/2000/svg" fill="none" stroke-linecap="round" stroke="#000000" stroke-width="0.9"/>
</g>
</g></g><g partID='854106350'><g transform='translate(237.599,220.323)' ><g id="schematic" xmlns="http://www.w3.org/2000/svg">
<path id="connector0pin" d="M7.201,7.575l0,-7.2" xmlns="http://www.w3.org/2000/svg" fill="none" stroke-linecap="round" stroke="#787878" stroke-width="0.75"/>
<g height="0.953" id="connector0terminal" width="0.945" xmlns="http://www.w3.org/2000/svg" x="6.728" y="0" fill="none"/>
<path id="path4098" d="M0.5,7.711L13.9,7.711" xmlns="http://www.w3.org/2000/svg" fill="none" stroke-linecap="round" stroke="#000000" stroke-width="0.9"/>
<path id="path4100" d="M2.732,10.456l8.935,0" xmlns="http://www.w3.org/2000/svg" fill="none" stroke-linecap="round" stroke="#000000" stroke-width="0.9"/>
<path id="path4102" d="M9.431,13.175L4.967,13.175" xmlns="http://www.w3.org/2000/svg" fill="none" stroke-linecap="round" stroke="#000000" stroke-width="0.9"/>
</g>
</g></g><g partID='854106330'><g transform='translate(201.333,220.057)' ><g id="schematic" xmlns="http://www.w3.org/2000/svg">
<path id="connector0pin" d="M7.201,7.575l0,-7.2" xmlns="http://www.w3.org/2000/svg" fill="none" stroke-linecap="round" stroke="#787878" stroke-width="0.75"/>
<g height="0.953" id="connector0terminal" width="0.945" xmlns="http://www.w3.org/2000/svg" x="6.728" y="0" fill="none"/>
<path id="path4098" d="M0.5,7.711L13.9,7.711" xmlns="http://www.w3.org/2000/svg" fill="none" stroke-linecap="round" stroke="#000000" stroke-width="0.9"/>
<path id="path4100" d="M2.732,10.456l8.935,0" xmlns="http://www.w3.org/2000/svg" fill="none" stroke-linecap="round" stroke="#000000" stroke-width="0.9"/>
<path id="path4102" d="M9.431,13.175L4.967,13.175" xmlns="http://www.w3.org/2000/svg" fill="none" stroke-linecap="round" stroke="#000000" stroke-width="0.9"/>
</g>
</g></g><g partID='854105530'><g transform='translate(86.1328,220.057)' ><g id="schematic" xmlns="http://www.w3.org/2000/svg">
<path id="connector0pin" d="M7.201,7.575l0,-7.2" xmlns="http://www.w3.org/2000/svg" fill="none" stroke-linecap="round" stroke="#787878" stroke-width="0.75"/>
<g height="0.953" id="connector0terminal" width="0.945" xmlns="http://www.w3.org/2000/svg" x="6.728" y="0" fill="none"/>
<path id="path4098" d="M0.5,7.711L13.9,7.711" xmlns="http://www.w3.org/2000/svg" fill="none" stroke-linecap="round" stroke="#000000" stroke-width="0.9"/>
<path id="path4100" d="M2.732,10.456l8.935,0" xmlns="http://www.w3.org/2000/svg" fill="none" stroke-linecap="round" stroke="#000000" stroke-width="0.9"/>
<path id="path4102" d="M9.431,13.175L4.967,13.175" xmlns="http://www.w3.org/2000/svg" fill="none" stroke-linecap="round" stroke="#000000" stroke-width="0.9"/>
</g>
</g></g><g partID='854105590'><g transform='translate(78.9518,12.1603)' ><g id="schematic">
<line id="connector0pin" y1="6.78" y2="13.98" stroke-miterlimit="10" x1="7.2" x2="7.2" fill="none" stroke-linecap="round" stroke="#787878" stroke-width="0.75"/>
<g id="connector0terminal" fill="none" points="6.817,13.567,7.546,13.546,7.546,14.4,6.859,14.359"/>
<path d="M0.45,6.564l13.5,0" fill="none" stroke-linecap="round" stroke="#000000" stroke-width="0.9"/>
<g transform="matrix(1, 0, 0, 1, 1.4985, 4.9878)">
<text font-size="4.4991" id="label" font-family="'DroidSans'">5V</text>
</g>
</g>
</g></g><g partID='854209090'><line stroke-linecap='round' stroke='#000000' x1='244.8' y1='141.6' x2='280.8' y2='141.6' stroke-width='0.4' /></g><g partID='854209110'><line stroke-linecap='round' stroke='#000000' x1='208.8' y1='141.6' x2='244.8' y2='141.6' stroke-width='0.4' /></g><g partID='854209130'><line stroke-linecap='round' stroke='#000000' x1='280.8' y1='141.6' x2='280.533' y2='220.533' stroke-width='0.4' /></g><g partID='854209210'><line stroke-linecap='round' stroke='#ab58a2' x1='244.533' y1='105.333' x2='244.8' y2='119.999' stroke-width='0.4' /></g><g partID='854209250'><line stroke-linecap='round' stroke='#8c3b00' x1='280.533' y1='105.333' x2='280.8' y2='119.999' stroke-width='0.4' /></g><g partID='854209290'><line stroke-linecap='round' stroke='#fa50e6' x1='208.8' y1='105.6' x2='208.8' y2='119.999' stroke-width='0.4' /></g><g partID='854106190'><line stroke-linecap='round' stroke='#404040' x1='93.3336' y1='220.534' x2='93.3336' y2='198.933' stroke-width='0.699998' /></g><g partID='854106680'><line stroke-linecap='round' stroke='#404040' x1='208.8' y1='119.999' x2='208.801' y2='105.6' stroke-width='0.699998' /></g><g partID='854106750'><line stroke-linecap='round' stroke='#404040' x1='244.8' y1='119.999' x2='244.533' y2='105.333' stroke-width='0.699998' /></g><g partID='854123840'><line stroke-linecap='round' stroke='#404040' x1='280.8' y1='119.999' x2='280.533' y2='105.333' stroke-width='0.699998' /></g><g partID='854133490'><line stroke-linecap='round' stroke='#404040' x1='208.8' y1='141.6' x2='208.533' y2='220.533' stroke-width='0.699998' /></g><g partID='854133720'><line stroke-linecap='round' stroke='#404040' x1='244.8' y1='141.6' x2='244.8' y2='220.8' stroke-width='0.699998' /></g><g partID='854133990'><line stroke-linecap='round' stroke='#404040' x1='280.8' y1='141.6' x2='280.533' y2='220.533' stroke-width='0.699998' /></g><g partID='854180010'><line stroke-linecap='round' stroke='#404040' x1='86.1334' y1='47.7334' x2='86.1333' y2='26.1333' stroke-width='0.699998' /></g><circle  fill="black" cx="86.1334" cy="47.7334" r="1.44" stroke-width="0" stroke="none" /><g partID='854180530'><line stroke-linecap='round' stroke='#404040' x1='208.8' y1='33.6' x2='208.8' y2='76.8002' stroke-width='0.699998' /></g><circle  fill="black" cx="208.8" cy="76.8002" r="1.44" stroke-width="0" stroke="none" /><g partID='854180380'><line stroke-linecap='round' stroke='#404040' x1='86.4' y1='33.6' x2='208.8' y2='33.6' stroke-width='0.699998' /></g><g partID='854180240'><line stroke-linecap='round' stroke='#404040' x1='86.1334' y1='47.7334' x2='86.4' y2='33.6' stroke-width='0.699998' /></g><circle  fill="black" cx="86.1334" cy="47.7334" r="1.44" stroke-width="0" stroke="none" /><g partID='854180840'><line stroke-linecap='round' stroke='#404040' x1='244.8' y1='33.6' x2='244.533' y2='76.533' stroke-width='0.699998' /></g><circle  fill="black" cx="244.533" cy="76.533" r="1.44" stroke-width="0" stroke="none" /><g partID='854180700'><line stroke-linecap='round' stroke='#404040' x1='280.8' y1='33.6' x2='244.8' y2='33.6' stroke-width='0.699998' /></g><g partID='854180710'><line stroke-linecap='round' stroke='#404040' x1='280.533' y1='76.533' x2='280.8' y2='33.6' stroke-width='0.699998' /></g><g partID='854181010'><line stroke-linecap='round' stroke='#404040' x1='244.8' y1='33.6' x2='244.533' y2='76.533' stroke-width='0.699998' /></g><circle  fill="black" cx="244.533" cy="76.533" r="1.44" stroke-width="0" stroke="none" /><g partID='854181130'><line stroke-linecap='round' stroke='#404040' x1='208.8' y1='33.6' x2='244.8' y2='33.6' stroke-width='0.699998' /></g><g partID='854181020'><line stroke-linecap='round' stroke='#404040' x1='208.8' y1='76.8002' x2='208.8' y2='33.6' stroke-width='0.699998' /></g><circle  fill="black" cx="208.8" cy="76.8002" r="1.44" stroke-width="0" stroke="none" /><g partID='854105420' id='partLabel'><g transform='translate(143.734,42.1334)' ><g font-size='5' font-style='normal' font-weight='normal' fill='#000000' font-family="'DroidSans'" id='schematicLabel' fill-opacity='1' stroke='none' ><text x='0' y='3.75'>Part1</text></g></g></g><g partID='854106220' id='partLabel'><g transform='translate(261.496,76.3496)' ><g transform='matrix(0,1,-1,0,0,0)'  ><g font-size='5' font-style='normal' font-weight='normal' fill='#000000' font-family="'DroidSans'" id='schematicLabel' fill-opacity='1' stroke='none' ><text x='0' y='3.75'>R2</text><text x='0' y='8.75'>1k&#x3a9;</text></g></g></g></g><g partID='854106260' id='partLabel'><g transform='translate(297.496,76.3496)' ><g transform='matrix(0,1,-1,0,0,0)'  ><g font-size='5' font-style='normal' font-weight='normal' fill='#000000' font-family="'DroidSans'" id='schematicLabel' fill-opacity='1' stroke='none' ><text x='0' y='3.75'>R3</text><text x='0' y='8.75'>10k&#x3a9;</text></g></g></g></g><g partID='854105450' id='partLabel'><g transform='translate(225.763,76.6168)' ><g transform='matrix(0,1,-1,0,0,0)'  ><g font-size='5' font-style='normal' font-weight='normal' fill='#000000' font-family="'DroidSans'" id='schematicLabel' fill-opacity='1' stroke='none' ><text x='0' y='3.75'>R1</text><text x='0' y='8.75'>220&#x3a9;</text></g></g></g></g><g partID='854121430' id='partLabel'><g transform='translate(297.779,119.917)' ><g transform='matrix(0,1,-1,0,0,0)'  ><g font-size='5' font-style='normal' font-weight='normal' fill='#000000' font-family="'DroidSans'" id='schematicLabel' fill-opacity='1' stroke='none' ><text x='0' y='3.75'>LED3</text><text x='0' y='8.75'>Red (633nm)</text></g></g></g></g><g partID='854121890' id='partLabel'><g transform='translate(261.779,119.917)' ><g transform='matrix(0,1,-1,0,0,0)'  ><g font-size='5' font-style='normal' font-weight='normal' fill='#000000' font-family="'DroidSans'" id='schematicLabel' fill-opacity='1' stroke='none' ><text x='0' y='3.75'>LED2</text><text x='0' y='8.75'>Red (633nm)</text></g></g></g></g><g partID='854105480' id='partLabel'><g transform='translate(225.779,119.917)' ><g transform='matrix(0,1,-1,0,0,0)'  ><g font-size='5' font-style='normal' font-weight='normal' fill='#000000' font-family="'DroidSans'" id='schematicLabel' fill-opacity='1' stroke='none' ><text x='0' y='3.75'>LED1</text><text x='0' y='8.75'>Red (633nm)</text></g></g></g></g></svg>