<?xml version='1.0' encoding='UTF-8' standalone='no'?>
<!-- Created with Fritzing (http://www.fritzing.org/) -->
<svg xmlns:svg='http://www.w3.org/2000/svg' xmlns='http://www.w3.org/2000/svg' version='1.2' baseProfile='tiny' x='0in' y='0in' width='4.62598in' height='4.11319in' viewBox='0 0 333.071 296.15' >
<g partID='854105560'><g xmlns="http://www.w3.org/2000/svg" id="schematicframe">
 <rect xmlns="http://www.w3.org/2000/svg" stroke="black" height="295.862" x="0.144" fill="none" y="0.144" stroke-width="0.288" width="332.783"/>
 <rect xmlns="http://www.w3.org/2000/svg" stroke="black" height="52.128" x="179.243" fill="none" y="243.878" stroke-width="0.288" width="153.684"/>
 <text xmlns="http://www.w3.org/2000/svg" stroke="none" text-anchor="left" x="182.879" fill="#000000" y="251.654" font-family="Droid Sans" stroke-width="0" id="descr" font-size="5.1588">Simple LED wireing with differnt resistors</text>
 <text xmlns="http://www.w3.org/2000/svg" stroke="none" text-anchor="left" x="182.879" fill="#000000" y="259.646" font-family="Droid Sans" stroke-width="0" id="descr+" font-size="5.1588"/>
 <line xmlns="http://www.w3.org/2000/svg" y1="263.642" stroke="black" y2="263.642" x1="179.099" x2="333.071" fill="none" stroke-width="0.192002"/>
 <text xmlns="http://www.w3.org/2000/svg" stroke="none" x="182.879" fill="#666666" y="271.022" stroke-width="0" font-family="'Droid Sans'" id="project label" font-size="5.1588">Project</text>
 <text xmlns="http://www.w3.org/2000/svg" stroke="none" text-anchor="left" x="211.067" fill="#000000" y="271.382" font-family="Droid Sans" stroke-width="0" id="project" font-size="6.876">Arduino Exercises</text>
 <line xmlns="http://www.w3.org/2000/svg" y1="274.442" stroke="black" y2="274.442" x1="179.099" x2="333.071" fill="none" stroke-width="0.288"/>
 <text xmlns="http://www.w3.org/2000/svg" stroke="none" x="182.879" fill="#666666" y="281.714" stroke-width="0" font-family="'Droid Sans'" id="filename label" font-size="5.1588">Filename</text>
 <text xmlns="http://www.w3.org/2000/svg" stroke="none" text-anchor="left" x="211.067" fill="#000000" y="281.714" font-family="Droid Sans" stroke-width="0" id="filename" font-size="5.1588">led_basics_part_1.fzz</text>
 <text xmlns="http://www.w3.org/2000/svg" stroke="none" text-anchor="left" x="291.527" fill="#666666" y="281.714" font-family="Droid Sans" stroke-width="0" id="rev label" font-size="5.1588">Rev</text>
 <text xmlns="http://www.w3.org/2000/svg" stroke="none" text-anchor="left" x="308.699" fill="#000000" y="281.714" font-family="Droid Sans" stroke-width="0" id="rev" font-size="5.1588">1</text>
 <line xmlns="http://www.w3.org/2000/svg" y1="285.314" stroke="black" y2="285.314" x1="179.099" x2="333.071" fill="none" stroke-width="0.288"/>
 <text xmlns="http://www.w3.org/2000/svg" stroke="none" text-anchor="left" x="182.879" fill="#666666" y="292.226" font-family="Droid Sans" stroke-width="0" id="date label" font-size="5.1588">Date</text>
 <text xmlns="http://www.w3.org/2000/svg" stroke="none" text-anchor="left" x="211.067" fill="#000000" y="292.514" font-family="Droid Sans" stroke-width="0" id="date" font-size="5.1588">13 Sep 2019 11:10:34</text>
 <text xmlns="http://www.w3.org/2000/svg" stroke="none" text-anchor="left" x="291.527" fill="#666666" y="293.234" font-family="Droid Sans" stroke-width="0" id="sheet label" font-size="5.1588">Sheet</text>
 <text xmlns="http://www.w3.org/2000/svg" stroke="none" text-anchor="left" x="308.699" fill="#000000" y="293.234" font-family="Droid Sans" stroke-width="0" id="sheet" font-size="5.1588">1/2</text>
</g>
</g><g partID='854105420'><g transform='translate(42.9334,47.7334)' ><g id="schematic">
<rect stroke="#000000" height="121.5" x="14.85" fill="#FFFFFF" y="14.85" stroke-width="0.9" stroke-linecap="round" width="71.101"/>
<line stroke="#787878" y1="28.8" y2="28.8" x1="86.05" x2="100.451" fill="none" stroke-width="0.75" stroke-linecap="round" id="connector103pin"/>
<g transform="matrix(1, 0, 0, 1, 69.3354, 29.5005)">
<text fill="#8C8C8C" font-family="'DroidSans'" font-size="3.5">D13 PWM</text>
</g>
<g height="0.7" x="100.451" fill="none" y="28.45" id="connector103terminal" width="0.699"/>
<line stroke="#787878" y1="36" y2="36" x1="86.05" x2="100.451" fill="none" stroke-width="0.75" stroke-linecap="round" id="connector102pin"/>
<g transform="matrix(1, 0, 0, 1, 71.1108, 36.6997)">
<text fill="#8C8C8C" font-family="'DroidSans'" font-size="3.5">D12/A11</text>
</g>
<g height="0.7" x="100.451" fill="none" y="35.65" id="connector102terminal" width="0.699"/>
<line stroke="#787878" y1="43.2" y2="43.2" x1="86.05" x2="100.451" fill="none" stroke-width="0.75" stroke-linecap="round" id="connector101pin"/>
<g transform="matrix(1, 0, 0, 1, 69.3354, 43.9009)">
<text fill="#8C8C8C" font-family="'DroidSans'" font-size="3.5">D11 PWM</text>
</g>
<g height="0.7" x="100.451" fill="none" y="42.85" id="connector101terminal" width="0.699"/>
<line stroke="#787878" y1="50.4" y2="50.4" x1="86.05" x2="100.451" fill="none" stroke-width="0.75" stroke-linecap="round" id="connector100pin"/>
<g transform="matrix(1, 0, 0, 1, 62.0464, 51.1001)">
<text fill="#8C8C8C" font-family="'DroidSans'" font-size="3.5">D10 PWM/A10</text>
</g>
<g height="0.7" x="100.451" fill="none" y="50.05" id="connector100terminal" width="0.699"/>
<line stroke="#787878" y1="57.6" y2="57.6" x1="86.05" x2="100.451" fill="none" stroke-width="0.75" stroke-linecap="round" id="connector99pin"/>
<g transform="matrix(1, 0, 0, 1, 65.9019, 58.3013)">
<text fill="#8C8C8C" font-family="'DroidSans'" font-size="3.5">D9 PWM/A9</text>
</g>
<g transform="matrix(1, 0, 0, 1, 74.9663, 65.5005)">
<text fill="#8C8C8C" font-family="'DroidSans'" font-size="3.5">D8/A8</text>
</g>
<g height="0.7" x="100.451" fill="none" y="57.25" id="connector99terminal" width="0.699"/>
<line stroke="#787878" y1="64.8" y2="64.8" x1="86.05" x2="100.451" fill="none" stroke-width="0.75" stroke-linecap="round" id="connector98pin"/>
<g height="0.7" x="100.451" fill="none" y="64.45" id="connector98terminal" width="0.699"/>
<line stroke="#787878" y1="72" y2="72" x1="86.05" x2="100.451" fill="none" stroke-width="0.75" stroke-linecap="round" id="connector83pin"/>
<g transform="matrix(1, 0, 0, 1, 80.3276, 72.6997)">
<text fill="#8C8C8C" font-family="'DroidSans'" font-size="3.5">D7</text>
</g>
<g height="0.7" x="100.451" fill="none" y="71.65" id="connector83terminal" width="0.699"/>
<line stroke="#787878" y1="79.2" y2="79.2" x1="86.05" x2="100.451" fill="none" stroke-width="0.75" stroke-linecap="round" id="connector82pin"/>
<g transform="matrix(1, 0, 0, 1, 65.9019, 79.9009)">
<text fill="#8C8C8C" font-family="'DroidSans'" font-size="3.5">D6 PWM/A7</text>
</g>
<g height="0.699" x="100.451" fill="none" y="78.85" id="connector82terminal" width="0.699"/>
<line stroke="#787878" y1="86.4" y2="86.4" x1="86.05" x2="100.451" fill="none" stroke-width="0.75" stroke-linecap="round" id="connector81pin"/>
<g transform="matrix(1, 0, 0, 1, 71.2632, 87.1001)">
<text fill="#8C8C8C" font-family="'DroidSans'" font-size="3.5">D5 PWM</text>
</g>
<g height="0.701" x="100.451" fill="none" y="86.049" id="connector81terminal" width="0.699"/>
<line stroke="#787878" y1="93.6" y2="93.6" x1="86.05" x2="100.451" fill="none" stroke-width="0.75" stroke-linecap="round" id="connector80pin"/>
<g transform="matrix(1, 0, 0, 1, 74.9663, 94.3022)">
<text fill="#8C8C8C" font-family="'DroidSans'" font-size="3.5">D4/A6</text>
</g>
<g height="0.699" x="100.451" fill="none" y="93.25" id="connector80terminal" width="0.699"/>
<line y1="100.799" y2="100.799" x1="86.05" x2="100.451" fill="none" id="connector79pin"/>
<g height="0.7" x="100.451" fill="none" y="100.45" id="connector79terminal" width="0.699"/>
<line stroke="#787878" y1="100.799" y2="100.799" x1="86.05" x2="100.451" fill="none" stroke-width="0.75" stroke-linecap="round" id="connector107pin"/>
<g transform="matrix(1, 0, 0, 1, 79.0034, 101.501)">
<text fill="#8C8C8C" font-family="'DroidSans'" font-size="3.5">SCL</text>
</g>
<g height="0.7" x="100.451" fill="none" y="100.45" id="connector107terminal" width="0.699"/>
<line y1="108" y2="108" x1="86.05" x2="100.451" fill="none" id="connector78pin"/>
<g height="0.7" x="100.451" fill="none" y="107.65" id="connector78terminal" width="0.699"/>
<line stroke="#787878" y1="108" y2="108" x1="86.05" x2="100.451" fill="none" stroke-width="0.75" stroke-linecap="round" id="connector106pin"/>
<g transform="matrix(1, 0, 0, 1, 78.3452, 108.7)">
<text fill="#8C8C8C" font-family="'DroidSans'" font-size="3.5">S</text>
</g>
<g transform="matrix(1, 0, 0, 1, 80.1616, 108.7)">
<text fill="#8C8C8C" font-family="'DroidSans'" font-size="3.5">D</text>
</g>
<g transform="matrix(1, 0, 0, 1, 82.522, 108.7)">
<text fill="#8C8C8C" font-family="'DroidSans'" font-size="3.5">A</text>
</g>
<g height="0.7" x="100.451" fill="none" y="107.65" id="connector106terminal" width="0.699"/>
<line stroke="#787878" y1="115.2" y2="115.2" x1="86.05" x2="100.451" fill="none" stroke-width="0.75" stroke-linecap="round" id="connector77pin"/>
<g transform="matrix(1, 0, 0, 1, 75.2905, 115.903)">
<text fill="#8C8C8C" font-family="'DroidSans'" font-size="3.5">D1/TX</text>
</g>
<g height="0.699" x="100.451" fill="none" y="114.85" id="connector77terminal" width="0.699"/>
<line stroke="#787878" y1="122.4" y2="122.4" x1="86.05" x2="100.451" fill="none" stroke-width="0.75" stroke-linecap="round" id="connector76pin"/>
<g transform="matrix(1, 0, 0, 1, 75.0425, 123.1)">
<text fill="#8C8C8C" font-family="'DroidSans'" font-size="3.5">D0/RX</text>
</g>
<g height="0.701" x="100.451" fill="none" y="122.049" id="connector76terminal" width="0.699"/>
<line stroke="#787878" y1="28.8" y2="28.8" x1="0.35" x2="14.75" fill="none" stroke-width="0.75" stroke-linecap="round" id="connector105pin"/>
<g transform="matrix(1, 0, 0, 1, 16.1504, 29.5005)">
<text fill="#8C8C8C" font-family="'DroidSans'" font-size="3.5">AREF</text>
</g>
<g transform="matrix(1, 0, 0, 1, 16.1504, 36.6997)">
<text fill="#8C8C8C" font-family="'DroidSans'" font-size="3.5">Reset</text>
</g>
<g height="0.7" x="-0.35" fill="none" y="28.45" id="connector105terminal" width="0.7"/>
<line stroke="#787878" y1="36" y2="36" x1="0.35" x2="14.75" fill="none" stroke-width="0.75" stroke-linecap="round" id="connector86pin"/>
<g height="0.7" x="-0.35" fill="none" y="35.65" id="connector86terminal" width="0.7"/>
<line stroke="#787878" y1="50.4" y2="50.4" x1="0.35" x2="14.75" fill="none" stroke-width="0.75" stroke-linecap="round" id="connector84pin"/>
<g transform="matrix(1, 0, 0, 1, 16.1504, 43.9009)">
<text fill="#8C8C8C" font-family="'DroidSans'" font-size="3.5">I</text>
</g>
<g transform="matrix(1, 0, 0, 1, 17.3022, 43.9009)">
<text fill="#8C8C8C" font-family="'DroidSans'" font-size="3.5">O</text>
</g>
<g transform="matrix(1, 0, 0, 1, 19.8999, 43.9009)">
<text fill="#8C8C8C" font-family="'DroidSans'" font-size="3.5">R</text>
</g>
<g transform="matrix(1, 0, 0, 1, 21.9644, 43.9009)">
<text fill="#8C8C8C" font-family="'DroidSans'" font-size="3.5">E</text>
</g>
<g transform="matrix(1, 0, 0, 1, 23.8115, 43.9009)">
<text fill="#8C8C8C" font-family="'DroidSans'" font-size="3.5">F</text>
</g>
<g transform="matrix(1, 0, 0, 1, 16.1504, 51.103)">
<text fill="#8C8C8C" font-family="'DroidSans'" font-size="3.5">n.c.</text>
</g>
<g height="0.7" x="-0.35" fill="none" y="50.05" id="connector84terminal" width="0.7"/>
<line stroke="#787878" y1="43.2" y2="43.2" x1="0.35" x2="14.75" fill="none" stroke-width="0.75" stroke-linecap="round" id="connector85pin"/>
<g height="0.7" x="-0.35" fill="none" y="42.85" id="connector85terminal" width="0.7"/>
<line stroke="#787878" y1="0.35" y2="14.75" x1="43.2" x2="43.2" fill="none" stroke-width="0.75" stroke-linecap="round" id="connector88pin"/>
<g height="0.7" x="42.85" fill="none" y="-0.35" id="connector88terminal" width="0.7"/>
<line stroke="#787878" y1="64.8" y2="64.8" x1="0.35" x2="14.75" fill="none" stroke-width="0.75" stroke-linecap="round" id="connector92pin"/>
<g transform="matrix(1, 0, 0, 1, 16.1504, 65.5005)">
<text fill="#8C8C8C" font-family="'DroidSans'" font-size="3.5">A0</text>
</g>
<g height="0.7" x="-0.35" fill="none" y="64.45" id="connector92terminal" width="0.7"/>
<line stroke="#787878" y1="72" y2="72" x1="0.35" x2="14.75" fill="none" stroke-width="0.75" stroke-linecap="round" id="connector93pin"/>
<g transform="matrix(1, 0, 0, 1, 16.1504, 72.6997)">
<text fill="#8C8C8C" font-family="'DroidSans'" font-size="3.5">A1</text>
</g>
<g height="0.7" x="-0.35" fill="none" y="71.65" id="connector93terminal" width="0.7"/>
<line stroke="#787878" y1="79.2" y2="79.2" x1="0.35" x2="14.75" fill="none" stroke-width="0.75" stroke-linecap="round" id="connector94pin"/>
<g transform="matrix(1, 0, 0, 1, 16.1504, 79.9009)">
<text fill="#8C8C8C" font-family="'DroidSans'" font-size="3.5">A2</text>
</g>
<g height="0.699" x="-0.35" fill="none" y="78.85" id="connector94terminal" width="0.7"/>
<line stroke="#787878" y1="86.4" y2="86.4" x1="0.35" x2="14.75" fill="none" stroke-width="0.75" stroke-linecap="round" id="connector95pin"/>
<g transform="matrix(1, 0, 0, 1, 16.1504, 87.1001)">
<text fill="#8C8C8C" font-family="'DroidSans'" font-size="3.5">A3</text>
</g>
<g height="0.701" x="-0.35" fill="none" y="86.049" id="connector95terminal" width="0.7"/>
<line stroke="#787878" y1="93.6" y2="93.6" x1="0.35" x2="14.75" fill="none" stroke-width="0.75" stroke-linecap="round" id="connector96pin"/>
<g transform="matrix(1, 0, 0, 1, 16.1504, 94.3022)">
<text fill="#8C8C8C" font-family="'DroidSans'" font-size="3.5">A4</text>
</g>
<g height="0.699" x="-0.35" fill="none" y="93.25" id="connector96terminal" width="0.7"/>
<line stroke="#787878" y1="100.799" y2="100.799" x1="0.35" x2="14.75" fill="none" stroke-width="0.75" stroke-linecap="round" id="connector97pin"/>
<g transform="matrix(1, 0, 0, 1, 16.1504, 101.501)">
<text fill="#8C8C8C" font-family="'DroidSans'" font-size="3.5">A5</text>
</g>
<g height="0.7" x="-0.35" fill="none" y="100.45" id="connector97terminal" width="0.7"/>
<line y1="136.45" y2="150.85" x1="50.4" x2="50.4" fill="none" id="connector89pin"/>
<g height="0.699" x="50.05" fill="none" y="150.85" id="connector89terminal" width="0.7"/>
<line y1="136.45" y2="150.85" x1="50.4" x2="50.4" fill="none" id="connector90pin"/>
<g height="0.699" x="50.05" fill="none" y="150.85" id="connector90terminal" width="0.7"/>
<line stroke="#787878" y1="136.45" y2="150.85" x1="50.4" x2="50.4" fill="none" stroke-width="0.75" stroke-linecap="round" id="connector104pin"/>
<g height="0.699" x="50.05" fill="none" y="150.85" id="connector104terminal" width="0.7"/>
<line stroke="#787878" y1="0.35" y2="14.75" x1="36" x2="36" fill="none" stroke-width="0.75" stroke-linecap="round" id="connector87pin"/>
<g transform="matrix(1, 0, 0, 1, 12.9469, 5.69736)">
<g>
<g transform="rotate(270)">
<g>
<g transform="matrix(1, 0, 0, 1, -16.2953, 24.2523)">
<text fill="#8C8C8C" font-family="'DroidSans'" font-size="3.5">3V3</text>
</g>
<g transform="matrix(1, 0, 0, 1, -14.4633, 31.3011)">
<text fill="#8C8C8C" font-family="'DroidSans'" font-size="3.5">5V</text>
</g>
<g transform="matrix(1, 0, 0, 1, -16.2953, 45.8846)">
<text fill="#8C8C8C" font-family="'DroidSans'" font-size="3.5">VIN</text>
</g>
</g>
</g>
</g>
</g>
<g height="0.7" x="35.65" fill="none" y="-0.35" id="connector87terminal" width="0.7"/>
<line stroke="#787878" y1="0.35" y2="14.75" x1="57.6" x2="57.6" fill="none" stroke-width="0.75" stroke-linecap="round" id="connector91pin"/>
<g height="0.7" x="57.25" fill="none" y="-0.35" id="connector91terminal" width="0.701"/>
<g transform="matrix(1, 0, 0, 1, 43.1855, 69.2505)">
<text font-family="'DroidSans'" id="label" font-size="4.25">Arduino</text>
</g>
<g transform="matrix(1, 0, 0, 1, 41.7441, 73.7837)">
<text font-family="'DroidSans'" id="label_1_" font-size="4.25">Leonardo</text>
</g>
<g transform="matrix(1, 0, 0, 1, 43.748, 78.3169)">
<text font-family="'DroidSans'" id="label_2_" font-size="4.25">(Rev3b)</text>
</g>
</g>
</g></g><g partID='854106260'><g transform='translate(283.629,76.1828)' ><g transform='matrix(0,1,-1,0,0,0)'  ><g xmlns="http://www.w3.org/2000/svg" id="schematic">
<line class="other" y1="3.096" stroke="#000000" y2="0.216" xmlns="http://www.w3.org/2000/svg" x1="7.55002" x2="8.63003" stroke-width="0.432002" stroke-linecap="round"/>
<line class="other" y1="0.216" stroke="#000000" y2="5.976" xmlns="http://www.w3.org/2000/svg" x1="8.63003" x2="10.43" stroke-width="0.432002" stroke-linecap="round"/>
<line class="other" y1="5.976" stroke="#000000" y2="0.216" xmlns="http://www.w3.org/2000/svg" x1="10.43" x2="12.23" stroke-width="0.432002" stroke-linecap="round"/>
<line class="other" y1="0.216" stroke="#000000" y2="5.976" xmlns="http://www.w3.org/2000/svg" x1="12.23" x2="14.03" stroke-width="0.432002" stroke-linecap="round"/>
<line class="other" y1="5.976" stroke="#000000" y2="0.216" xmlns="http://www.w3.org/2000/svg" x1="14.03" x2="15.8301" stroke-width="0.432002" stroke-linecap="round"/>
<line class="other" y1="0.216" stroke="#000000" y2="5.976" xmlns="http://www.w3.org/2000/svg" x1="15.8301" x2="17.6301" stroke-width="0.432002" stroke-linecap="round"/>
<line class="other" y1="5.976" stroke="#000000" y2="0.216" xmlns="http://www.w3.org/2000/svg" x1="17.6301" x2="19.4301" stroke-width="0.432002" stroke-linecap="round"/>
<line class="other" y1="0.216" stroke="#000000" y2="5.976" xmlns="http://www.w3.org/2000/svg" x1="19.4301" x2="21.2301" stroke-width="0.432002" stroke-linecap="round"/>
<line class="other" y1="5.976" stroke="#000000" y2="3.096" xmlns="http://www.w3.org/2000/svg" x1="21.2301" x2="21.9501" stroke-width="0.432002" stroke-linecap="round"/>
<line class="pin" y1="3.096" stroke="#787878" y2="3.096" xmlns="http://www.w3.org/2000/svg" x1="29.1502" x2="21.9501" connectorname="2" stroke-width="0.700001" stroke-linecap="round" id="connector1pin"/>
<g class="terminal" stroke="none" xmlns="http://www.w3.org/2000/svg" height="0.000283465" x="29.1502" fill="none" y="3.096" stroke-width="0" id="connector1terminal" width="0.000283466"/>
<text class="text" stroke="none" xmlns="http://www.w3.org/2000/svg" text-anchor="middle" fill="#8c8c8c" x="25.5501" y="2.046" font-family="'Droid Sans'" stroke-width="0" font-size="2.50001">2</text>
<line class="pin" y1="3.096" stroke="#787878" y2="3.096" xmlns="http://www.w3.org/2000/svg" x1="0.350001" x2="7.55002" connectorname="1" stroke-width="0.700001" stroke-linecap="round" id="connector0pin"/>
<g class="terminal" stroke="none" xmlns="http://www.w3.org/2000/svg" height="0.000283465" x="0.350001" fill="none" y="3.096" stroke-width="0" id="connector0terminal" width="0.000283466"/>
<text class="text" stroke="none" xmlns="http://www.w3.org/2000/svg" text-anchor="middle" fill="#8c8c8c" x="3.95001" y="2.046" font-family="'Droid Sans'" stroke-width="0" font-size="2.50001">1</text>
</g>
</g></g></g><g partID='854106220'><g transform='translate(247.629,76.1828)' ><g transform='matrix(0,1,-1,0,0,0)'  ><g xmlns="http://www.w3.org/2000/svg" id="schematic">
<line class="other" y1="3.096" stroke="#000000" y2="0.216" xmlns="http://www.w3.org/2000/svg" x1="7.55002" x2="8.63003" stroke-width="0.432002" stroke-linecap="round"/>
<line class="other" y1="0.216" stroke="#000000" y2="5.976" xmlns="http://www.w3.org/2000/svg" x1="8.63003" x2="10.43" stroke-width="0.432002" stroke-linecap="round"/>
<line class="other" y1="5.976" stroke="#000000" y2="0.216" xmlns="http://www.w3.org/2000/svg" x1="10.43" x2="12.23" stroke-width="0.432002" stroke-linecap="round"/>
<line class="other" y1="0.216" stroke="#000000" y2="5.976" xmlns="http://www.w3.org/2000/svg" x1="12.23" x2="14.03" stroke-width="0.432002" stroke-linecap="round"/>
<line class="other" y1="5.976" stroke="#000000" y2="0.216" xmlns="http://www.w3.org/2000/svg" x1="14.03" x2="15.8301" stroke-width="0.432002" stroke-linecap="round"/>
<line class="other" y1="0.216" stroke="#000000" y2="5.976" xmlns="http://www.w3.org/2000/svg" x1="15.8301" x2="17.6301" stroke-width="0.432002" stroke-linecap="round"/>
<line class="other" y1="5.976" stroke="#000000" y2="0.216" xmlns="http://www.w3.org/2000/svg" x1="17.6301" x2="19.4301" stroke-width="0.432002" stroke-linecap="round"/>
<line class="other" y1="0.216" stroke="#000000" y2="5.976" xmlns="http://www.w3.org/2000/svg" x1="19.4301" x2="21.2301" stroke-width="0.432002" stroke-linecap="round"/>
<line class="other" y1="5.976" stroke="#000000" y2="3.096" xmlns="http://www.w3.org/2000/svg" x1="21.2301" x2="21.9501" stroke-width="0.432002" stroke-linecap="round"/>
<line class="pin" y1="3.096" stroke="#787878" y2="3.096" xmlns="http://www.w3.org/2000/svg" x1="29.1502" x2="21.9501" connectorname="2" stroke-width="0.700001" stroke-linecap="round" id="connector1pin"/>
<g class="terminal" stroke="none" xmlns="http://www.w3.org/2000/svg" height="0.000283465" x="29.1502" fill="none" y="3.096" stroke-width="0" id="connector1terminal" width="0.000283466"/>
<text class="text" stroke="none" xmlns="http://www.w3.org/2000/svg" text-anchor="middle" fill="#8c8c8c" x="25.5501" y="2.046" font-family="'Droid Sans'" stroke-width="0" font-size="2.50001">2</text>
<line class="pin" y1="3.096" stroke="#787878" y2="3.096" xmlns="http://www.w3.org/2000/svg" x1="0.350001" x2="7.55002" connectorname="1" stroke-width="0.700001" stroke-linecap="round" id="connector0pin"/>
<g class="terminal" stroke="none" xmlns="http://www.w3.org/2000/svg" height="0.000283465" x="0.350001" fill="none" y="3.096" stroke-width="0" id="connector0terminal" width="0.000283466"/>
<text class="text" stroke="none" xmlns="http://www.w3.org/2000/svg" text-anchor="middle" fill="#8c8c8c" x="3.95001" y="2.046" font-family="'Droid Sans'" stroke-width="0" font-size="2.50001">1</text>
</g>
</g></g></g><g partID='854105450'><g transform='translate(211.896,76.45)' ><g transform='matrix(0,1,-1,0,0,0)'  ><g xmlns="http://www.w3.org/2000/svg" id="schematic">
<line class="other" y1="3.096" stroke="#000000" y2="0.216" xmlns="http://www.w3.org/2000/svg" x1="7.55002" x2="8.63003" stroke-width="0.432002" stroke-linecap="round"/>
<line class="other" y1="0.216" stroke="#000000" y2="5.976" xmlns="http://www.w3.org/2000/svg" x1="8.63003" x2="10.43" stroke-width="0.432002" stroke-linecap="round"/>
<line class="other" y1="5.976" stroke="#000000" y2="0.216" xmlns="http://www.w3.org/2000/svg" x1="10.43" x2="12.23" stroke-width="0.432002" stroke-linecap="round"/>
<line class="other" y1="0.216" stroke="#000000" y2="5.976" xmlns="http://www.w3.org/2000/svg" x1="12.23" x2="14.03" stroke-width="0.432002" stroke-linecap="round"/>
<line class="other" y1="5.976" stroke="#000000" y2="0.216" xmlns="http://www.w3.org/2000/svg" x1="14.03" x2="15.8301" stroke-width="0.432002" stroke-linecap="round"/>
<line class="other" y1="0.216" stroke="#000000" y2="5.976" xmlns="http://www.w3.org/2000/svg" x1="15.8301" x2="17.6301" stroke-width="0.432002" stroke-linecap="round"/>
<line class="other" y1="5.976" stroke="#000000" y2="0.216" xmlns="http://www.w3.org/2000/svg" x1="17.6301" x2="19.4301" stroke-width="0.432002" stroke-linecap="round"/>
<line class="other" y1="0.216" stroke="#000000" y2="5.976" xmlns="http://www.w3.org/2000/svg" x1="19.4301" x2="21.2301" stroke-width="0.432002" stroke-linecap="round"/>
<line class="other" y1="5.976" stroke="#000000" y2="3.096" xmlns="http://www.w3.org/2000/svg" x1="21.2301" x2="21.9501" stroke-width="0.432002" stroke-linecap="round"/>
<line class="pin" y1="3.096" stroke="#787878" y2="3.096" xmlns="http://www.w3.org/2000/svg" x1="29.1502" x2="21.9501" connectorname="2" stroke-width="0.700001" stroke-linecap="round" id="connector1pin"/>
<g class="terminal" stroke="none" xmlns="http://www.w3.org/2000/svg" height="0.000283465" x="29.1502" fill="none" y="3.096" stroke-width="0" id="connector1terminal" width="0.000283466"/>
<text class="text" stroke="none" xmlns="http://www.w3.org/2000/svg" text-anchor="middle" fill="#8c8c8c" x="25.5501" y="2.046" font-family="'Droid Sans'" stroke-width="0" font-size="2.50001">2</text>
<line class="pin" y1="3.096" stroke="#787878" y2="3.096" xmlns="http://www.w3.org/2000/svg" x1="0.350001" x2="7.55002" connectorname="1" stroke-width="0.700001" stroke-linecap="round" id="connector0pin"/>
<g class="terminal" stroke="none" xmlns="http://www.w3.org/2000/svg" height="0.000283465" x="0.350001" fill="none" y="3.096" stroke-width="0" id="connector0terminal" width="0.000283466"/>
<text class="text" stroke="none" xmlns="http://www.w3.org/2000/svg" text-anchor="middle" fill="#8c8c8c" x="3.95001" y="2.046" font-family="'Droid Sans'" stroke-width="0" font-size="2.50001">1</text>
</g>
</g></g></g><g partID='854121890'><g transform='translate(234.899,119.783)' ><g id="schematic">
<g>
<path d="M13.5,14.966L9.9,14.966c-0.193,0,-0.35,-0.156,-0.35,-0.35s0.156,-0.35,0.35,-0.35L13.5,14.266c0.193,0,0.35,0.156,0.35,0.35S13.694,14.966,13.5,14.966z"/>
</g>
<g>
<path d="M9.9,14.966L6.3,14.966c-0.193,0,-0.35,-0.156,-0.35,-0.35s0.157,-0.35,0.35,-0.35l3.6,0c0.193,0,0.35,0.156,0.35,0.35S10.093,14.966,9.9,14.966z"/>
</g>
<g>
<polygon points="9.9,14.616,6.3,7.416,9.9,7.416,13.5,7.416" fill="#FFFFFF"/>
<path d="M9.9,15.398L5.734,7.066l8.333,0L9.9,15.398zM6.866,7.766L9.9,13.834l3.034,-6.068L6.866,7.766z"/>
</g>
<g>
<path d="M9.9,14.841c-0.124,0,-0.225,-0.101,-0.225,-0.225l0,-7.2c0,-0.124,0.101,-0.225,0.225,-0.225s0.225,0.101,0.225,0.225l0,7.2C10.124,14.74,10.024,14.841,9.9,14.841z"/>
</g>
<g>
<path d="M1.8,12.141c-0.058,0,-0.115,-0.021,-0.159,-0.065c-0.088,-0.088,-0.088,-0.23,0,-0.318l2.34,-2.341c0.088,-0.088,0.23,-0.088,0.318,0s0.088,0.23,0,0.318l-2.34,2.341C1.915,12.12,1.858,12.141,1.8,12.141z"/>
</g>
<g>
<path d="M2.16,15.381c-0.058,0,-0.115,-0.021,-0.159,-0.065c-0.088,-0.088,-0.088,-0.23,0,-0.318l2.34,-2.34c0.088,-0.088,0.23,-0.088,0.318,0s0.088,0.23,0,0.318l-2.34,2.34C2.276,15.359,2.218,15.381,2.16,15.381z"/>
</g>
<g id="connector0pin">
<path d="M9.9,22.166c-0.193,0,-0.35,-0.156,-0.35,-0.35l0,-7.2c0,-0.193,0.156,-0.35,0.35,-0.35s0.35,0.156,0.35,0.35l0,7.2C10.249,22.01,10.093,22.166,9.9,22.166z" fill="#787878"/>
</g>
<g id="connector0terminal">
<rect height="0.001" x="9.9" fill="none" y="21.816" width="0.001"/>
</g>
<g transform="matrix(1, 0, 0, 1, 3.429, 6.4262)">
<g>
<g transform="rotate(270)">
<g>
<g enable-background="new    ">
<path d="M-11.647,5.54l-0.891,0L-12.538,5.388l0.342,-0.372c0.049,-0.053,0.093,-0.101,0.131,-0.145s0.071,-0.086,0.099,-0.128c0.026,-0.042,0.047,-0.084,0.062,-0.125c0.015,-0.043,0.021,-0.088,0.021,-0.138c0,-0.038,-0.005,-0.072,-0.017,-0.102s-0.027,-0.054,-0.047,-0.075c-0.021,-0.02,-0.045,-0.035,-0.073,-0.046s-0.06,-0.016,-0.094,-0.016c-0.062,0,-0.118,0.013,-0.167,0.038c-0.051,0.024,-0.098,0.057,-0.143,0.096l-0.1,-0.116c0.025,-0.023,0.055,-0.046,0.084,-0.065c0.029,-0.021,0.063,-0.039,0.097,-0.054s0.071,-0.026,0.109,-0.036c0.038,-0.008,0.079,-0.013,0.121,-0.013c0.063,0,0.119,0.009,0.169,0.026c0.051,0.018,0.094,0.043,0.129,0.076c0.035,0.032,0.063,0.072,0.082,0.119c0.019,0.048,0.028,0.101,0.028,0.16c0,0.056,-0.009,0.108,-0.026,0.158c-0.017,0.05,-0.041,0.1,-0.07,0.148c-0.031,0.048,-0.066,0.097,-0.109,0.146c-0.041,0.049,-0.087,0.1,-0.136,0.152L-12.32,5.37l0,0.008l0.673,0L-11.647,5.54z" fill="#787878"/>
</g>
</g>
</g>
</g>
</g>
<g id="connector1pin">
<path d="M9.9,7.766c-0.193,0,-0.35,-0.157,-0.35,-0.35l0,-7.2c0,-0.193,0.156,-0.35,0.35,-0.35s0.35,0.157,0.35,0.35l0,7.2C10.249,7.609,10.093,7.766,9.9,7.766z" fill="#787878"/>
</g>
<g id="connector1terminal">
<polygon points="9.9,0.216,9.901,0.216,9.901,0.216" fill="none"/>
</g>
<g transform="matrix(1, 0, 0, 1, 3.429, 1.3462)">
<g>
<g transform="rotate(270)">
<g>
<g enable-background="new    ">
<path d="M-2.616,5.54l-0.172,0L-2.788,4.648c0,-0.028,0,-0.058,0,-0.09s0.001,-0.063,0.002,-0.095c0.001,-0.032,0.002,-0.063,0.003,-0.092c0.001,-0.028,0.002,-0.054,0.002,-0.076c-0.011,0.012,-0.021,0.021,-0.029,0.03s-0.017,0.017,-0.026,0.024s-0.018,0.016,-0.028,0.025c-0.01,0.008,-0.021,0.019,-0.035,0.03l-0.145,0.118l-0.094,-0.12l0.374,-0.292l0.146,0L-2.618,5.54z" fill="#787878"/>
</g>
</g>
</g>
</g>
</g>
<g>
<path d="M0.18,13.536l1.08,-2.521l1.44,1.438L0.18,13.536z"/>
</g>
<g>
<path d="M0.54,16.776l1.08,-2.521l1.438,1.438L0.54,16.776z"/>
</g>
</g>
</g></g><g partID='854121430'><g transform='translate(270.899,119.783)' ><g id="schematic">
<g>
<path d="M13.5,14.966L9.9,14.966c-0.193,0,-0.35,-0.156,-0.35,-0.35s0.156,-0.35,0.35,-0.35L13.5,14.266c0.193,0,0.35,0.156,0.35,0.35S13.694,14.966,13.5,14.966z"/>
</g>
<g>
<path d="M9.9,14.966L6.3,14.966c-0.193,0,-0.35,-0.156,-0.35,-0.35s0.157,-0.35,0.35,-0.35l3.6,0c0.193,0,0.35,0.156,0.35,0.35S10.093,14.966,9.9,14.966z"/>
</g>
<g>
<polygon points="9.9,14.616,6.3,7.416,9.9,7.416,13.5,7.416" fill="#FFFFFF"/>
<path d="M9.9,15.398L5.734,7.066l8.333,0L9.9,15.398zM6.866,7.766L9.9,13.834l3.034,-6.068L6.866,7.766z"/>
</g>
<g>
<path d="M9.9,14.841c-0.124,0,-0.225,-0.101,-0.225,-0.225l0,-7.2c0,-0.124,0.101,-0.225,0.225,-0.225s0.225,0.101,0.225,0.225l0,7.2C10.124,14.74,10.024,14.841,9.9,14.841z"/>
</g>
<g>
<path d="M1.8,12.141c-0.058,0,-0.115,-0.021,-0.159,-0.065c-0.088,-0.088,-0.088,-0.23,0,-0.318l2.34,-2.341c0.088,-0.088,0.23,-0.088,0.318,0s0.088,0.23,0,0.318l-2.34,2.341C1.915,12.12,1.858,12.141,1.8,12.141z"/>
</g>
<g>
<path d="M2.16,15.381c-0.058,0,-0.115,-0.021,-0.159,-0.065c-0.088,-0.088,-0.088,-0.23,0,-0.318l2.34,-2.34c0.088,-0.088,0.23,-0.088,0.318,0s0.088,0.23,0,0.318l-2.34,2.34C2.276,15.359,2.218,15.381,2.16,15.381z"/>
</g>
<g id="connector0pin">
<path d="M9.9,22.166c-0.193,0,-0.35,-0.156,-0.35,-0.35l0,-7.2c0,-0.193,0.156,-0.35,0.35,-0.35s0.35,0.156,0.35,0.35l0,7.2C10.249,22.01,10.093,22.166,9.9,22.166z" fill="#787878"/>
</g>
<g id="connector0terminal">
<rect height="0.001" x="9.9" fill="none" y="21.816" width="0.001"/>
</g>
<g transform="matrix(1, 0, 0, 1, 3.429, 6.4262)">
<g>
<g transform="rotate(270)">
<g>
<g enable-background="new    ">
<path d="M-11.647,5.54l-0.891,0L-12.538,5.388l0.342,-0.372c0.049,-0.053,0.093,-0.101,0.131,-0.145s0.071,-0.086,0.099,-0.128c0.026,-0.042,0.047,-0.084,0.062,-0.125c0.015,-0.043,0.021,-0.088,0.021,-0.138c0,-0.038,-0.005,-0.072,-0.017,-0.102s-0.027,-0.054,-0.047,-0.075c-0.021,-0.02,-0.045,-0.035,-0.073,-0.046s-0.06,-0.016,-0.094,-0.016c-0.062,0,-0.118,0.013,-0.167,0.038c-0.051,0.024,-0.098,0.057,-0.143,0.096l-0.1,-0.116c0.025,-0.023,0.055,-0.046,0.084,-0.065c0.029,-0.021,0.063,-0.039,0.097,-0.054s0.071,-0.026,0.109,-0.036c0.038,-0.008,0.079,-0.013,0.121,-0.013c0.063,0,0.119,0.009,0.169,0.026c0.051,0.018,0.094,0.043,0.129,0.076c0.035,0.032,0.063,0.072,0.082,0.119c0.019,0.048,0.028,0.101,0.028,0.16c0,0.056,-0.009,0.108,-0.026,0.158c-0.017,0.05,-0.041,0.1,-0.07,0.148c-0.031,0.048,-0.066,0.097,-0.109,0.146c-0.041,0.049,-0.087,0.1,-0.136,0.152L-12.32,5.37l0,0.008l0.673,0L-11.647,5.54z" fill="#787878"/>
</g>
</g>
</g>
</g>
</g>
<g id="connector1pin">
<path d="M9.9,7.766c-0.193,0,-0.35,-0.157,-0.35,-0.35l0,-7.2c0,-0.193,0.156,-0.35,0.35,-0.35s0.35,0.157,0.35,0.35l0,7.2C10.249,7.609,10.093,7.766,9.9,7.766z" fill="#787878"/>
</g>
<g id="connector1terminal">
<polygon points="9.9,0.216,9.901,0.216,9.901,0.216" fill="none"/>
</g>
<g transform="matrix(1, 0, 0, 1, 3.429, 1.3462)">
<g>
<g transform="rotate(270)">
<g>
<g enable-background="new    ">
<path d="M-2.616,5.54l-0.172,0L-2.788,4.648c0,-0.028,0,-0.058,0,-0.09s0.001,-0.063,0.002,-0.095c0.001,-0.032,0.002,-0.063,0.003,-0.092c0.001,-0.028,0.002,-0.054,0.002,-0.076c-0.011,0.012,-0.021,0.021,-0.029,0.03s-0.017,0.017,-0.026,0.024s-0.018,0.016,-0.028,0.025c-0.01,0.008,-0.021,0.019,-0.035,0.03l-0.145,0.118l-0.094,-0.12l0.374,-0.292l0.146,0L-2.618,5.54z" fill="#787878"/>
</g>
</g>
</g>
</g>
</g>
<g>
<path d="M0.18,13.536l1.08,-2.521l1.44,1.438L0.18,13.536z"/>
</g>
<g>
<path d="M0.54,16.776l1.08,-2.521l1.438,1.438L0.54,16.776z"/>
</g>
</g>
</g></g><g partID='854105480'><g transform='translate(198.899,119.783)' ><g id="schematic">
<g>
<path d="M13.5,14.966L9.9,14.966c-0.193,0,-0.35,-0.156,-0.35,-0.35s0.156,-0.35,0.35,-0.35L13.5,14.266c0.193,0,0.35,0.156,0.35,0.35S13.694,14.966,13.5,14.966z"/>
</g>
<g>
<path d="M9.9,14.966L6.3,14.966c-0.193,0,-0.35,-0.156,-0.35,-0.35s0.157,-0.35,0.35,-0.35l3.6,0c0.193,0,0.35,0.156,0.35,0.35S10.093,14.966,9.9,14.966z"/>
</g>
<g>
<polygon points="9.9,14.616,6.3,7.416,9.9,7.416,13.5,7.416" fill="#FFFFFF"/>
<path d="M9.9,15.398L5.734,7.066l8.333,0L9.9,15.398zM6.866,7.766L9.9,13.834l3.034,-6.068L6.866,7.766z"/>
</g>
<g>
<path d="M9.9,14.841c-0.124,0,-0.225,-0.101,-0.225,-0.225l0,-7.2c0,-0.124,0.101,-0.225,0.225,-0.225s0.225,0.101,0.225,0.225l0,7.2C10.124,14.74,10.024,14.841,9.9,14.841z"/>
</g>
<g>
<path d="M1.8,12.141c-0.058,0,-0.115,-0.021,-0.159,-0.065c-0.088,-0.088,-0.088,-0.23,0,-0.318l2.34,-2.341c0.088,-0.088,0.23,-0.088,0.318,0s0.088,0.23,0,0.318l-2.34,2.341C1.915,12.12,1.858,12.141,1.8,12.141z"/>
</g>
<g>
<path d="M2.16,15.381c-0.058,0,-0.115,-0.021,-0.159,-0.065c-0.088,-0.088,-0.088,-0.23,0,-0.318l2.34,-2.34c0.088,-0.088,0.23,-0.088,0.318,0s0.088,0.23,0,0.318l-2.34,2.34C2.276,15.359,2.218,15.381,2.16,15.381z"/>
</g>
<g id="connector0pin">
<path d="M9.9,22.166c-0.193,0,-0.35,-0.156,-0.35,-0.35l0,-7.2c0,-0.193,0.156,-0.35,0.35,-0.35s0.35,0.156,0.35,0.35l0,7.2C10.249,22.01,10.093,22.166,9.9,22.166z" fill="#787878"/>
</g>
<g id="connector0terminal">
<rect height="0.001" x="9.9" fill="none" y="21.816" width="0.001"/>
</g>
<g transform="matrix(1, 0, 0, 1, 3.429, 6.4262)">
<g>
<g transform="rotate(270)">
<g>
<g enable-background="new    ">
<path d="M-11.647,5.54l-0.891,0L-12.538,5.388l0.342,-0.372c0.049,-0.053,0.093,-0.101,0.131,-0.145s0.071,-0.086,0.099,-0.128c0.026,-0.042,0.047,-0.084,0.062,-0.125c0.015,-0.043,0.021,-0.088,0.021,-0.138c0,-0.038,-0.005,-0.072,-0.017,-0.102s-0.027,-0.054,-0.047,-0.075c-0.021,-0.02,-0.045,-0.035,-0.073,-0.046s-0.06,-0.016,-0.094,-0.016c-0.062,0,-0.118,0.013,-0.167,0.038c-0.051,0.024,-0.098,0.057,-0.143,0.096l-0.1,-0.116c0.025,-0.023,0.055,-0.046,0.084,-0.065c0.029,-0.021,0.063,-0.039,0.097,-0.054s0.071,-0.026,0.109,-0.036c0.038,-0.008,0.079,-0.013,0.121,-0.013c0.063,0,0.119,0.009,0.169,0.026c0.051,0.018,0.094,0.043,0.129,0.076c0.035,0.032,0.063,0.072,0.082,0.119c0.019,0.048,0.028,0.101,0.028,0.16c0,0.056,-0.009,0.108,-0.026,0.158c-0.017,0.05,-0.041,0.1,-0.07,0.148c-0.031,0.048,-0.066,0.097,-0.109,0.146c-0.041,0.049,-0.087,0.1,-0.136,0.152L-12.32,5.37l0,0.008l0.673,0L-11.647,5.54z" fill="#787878"/>
</g>
</g>
</g>
</g>
</g>
<g id="connector1pin">
<path d="M9.9,7.766c-0.193,0,-0.35,-0.157,-0.35,-0.35l0,-7.2c0,-0.193,0.156,-0.35,0.35,-0.35s0.35,0.157,0.35,0.35l0,7.2C10.249,7.609,10.093,7.766,9.9,7.766z" fill="#787878"/>
</g>
<g id="connector1terminal">
<polygon points="9.9,0.216,9.901,0.216,9.901,0.216" fill="none"/>
</g>
<g transform="matrix(1, 0, 0, 1, 3.429, 1.3462)">
<g>
<g transform="rotate(270)">
<g>
<g enable-background="new    ">
<path d="M-2.616,5.54l-0.172,0L-2.788,4.648c0,-0.028,0,-0.058,0,-0.09s0.001,-0.063,0.002,-0.095c0.001,-0.032,0.002,-0.063,0.003,-0.092c0.001,-0.028,0.002,-0.054,0.002,-0.076c-0.011,0.012,-0.021,0.021,-0.029,0.03s-0.017,0.017,-0.026,0.024s-0.018,0.016,-0.028,0.025c-0.01,0.008,-0.021,0.019,-0.035,0.03l-0.145,0.118l-0.094,-0.12l0.374,-0.292l0.146,0L-2.618,5.54z" fill="#787878"/>
</g>
</g>
</g>
</g>
</g>
<g>
<path d="M0.18,13.536l1.08,-2.521l1.44,1.438L0.18,13.536z"/>
</g>
<g>
<path d="M0.54,16.776l1.08,-2.521l1.438,1.438L0.54,16.776z"/>
</g>
</g>
</g></g><g partID='854106370'><g transform='translate(273.333,220.057)' ><g xmlns="http://www.w3.org/2000/svg" id="schematic">
<path stroke="#787878" xmlns="http://www.w3.org/2000/svg" d="M7.201,7.575l0,-7.2" fill="none" stroke-width="0.75" stroke-linecap="round" id="connector0pin"/>
<g xmlns="http://www.w3.org/2000/svg" height="0.953" x="6.728" fill="none" y="0" id="connector0terminal" width="0.945"/>
<path stroke="#000000" xmlns="http://www.w3.org/2000/svg" d="M0.5,7.711L13.9,7.711" fill="none" stroke-width="0.9" stroke-linecap="round" id="path4098"/>
<path stroke="#000000" xmlns="http://www.w3.org/2000/svg" d="M2.732,10.456l8.935,0" fill="none" stroke-width="0.9" stroke-linecap="round" id="path4100"/>
<path stroke="#000000" xmlns="http://www.w3.org/2000/svg" d="M9.431,13.175L4.967,13.175" fill="none" stroke-width="0.9" stroke-linecap="round" id="path4102"/>
</g>
</g></g><g partID='854106350'><g transform='translate(237.599,220.323)' ><g xmlns="http://www.w3.org/2000/svg" id="schematic">
<path stroke="#787878" xmlns="http://www.w3.org/2000/svg" d="M7.201,7.575l0,-7.2" fill="none" stroke-width="0.75" stroke-linecap="round" id="connector0pin"/>
<g xmlns="http://www.w3.org/2000/svg" height="0.953" x="6.728" fill="none" y="0" id="connector0terminal" width="0.945"/>
<path stroke="#000000" xmlns="http://www.w3.org/2000/svg" d="M0.5,7.711L13.9,7.711" fill="none" stroke-width="0.9" stroke-linecap="round" id="path4098"/>
<path stroke="#000000" xmlns="http://www.w3.org/2000/svg" d="M2.732,10.456l8.935,0" fill="none" stroke-width="0.9" stroke-linecap="round" id="path4100"/>
<path stroke="#000000" xmlns="http://www.w3.org/2000/svg" d="M9.431,13.175L4.967,13.175" fill="none" stroke-width="0.9" stroke-linecap="round" id="path4102"/>
</g>
</g></g><g partID='854106330'><g transform='translate(201.333,220.057)' ><g xmlns="http://www.w3.org/2000/svg" id="schematic">
<path stroke="#787878" xmlns="http://www.w3.org/2000/svg" d="M7.201,7.575l0,-7.2" fill="none" stroke-width="0.75" stroke-linecap="round" id="connector0pin"/>
<g xmlns="http://www.w3.org/2000/svg" height="0.953" x="6.728" fill="none" y="0" id="connector0terminal" width="0.945"/>
<path stroke="#000000" xmlns="http://www.w3.org/2000/svg" d="M0.5,7.711L13.9,7.711" fill="none" stroke-width="0.9" stroke-linecap="round" id="path4098"/>
<path stroke="#000000" xmlns="http://www.w3.org/2000/svg" d="M2.732,10.456l8.935,0" fill="none" stroke-width="0.9" stroke-linecap="round" id="path4100"/>
<path stroke="#000000" xmlns="http://www.w3.org/2000/svg" d="M9.431,13.175L4.967,13.175" fill="none" stroke-width="0.9" stroke-linecap="round" id="path4102"/>
</g>
</g></g><g partID='854105530'><g transform='translate(86.1328,220.057)' ><g xmlns="http://www.w3.org/2000/svg" id="schematic">
<path stroke="#787878" xmlns="http://www.w3.org/2000/svg" d="M7.201,7.575l0,-7.2" fill="none" stroke-width="0.75" stroke-linecap="round" id="connector0pin"/>
<g xmlns="http://www.w3.org/2000/svg" height="0.953" x="6.728" fill="none" y="0" id="connector0terminal" width="0.945"/>
<path stroke="#000000" xmlns="http://www.w3.org/2000/svg" d="M0.5,7.711L13.9,7.711" fill="none" stroke-width="0.9" stroke-linecap="round" id="path4098"/>
<path stroke="#000000" xmlns="http://www.w3.org/2000/svg" d="M2.732,10.456l8.935,0" fill="none" stroke-width="0.9" stroke-linecap="round" id="path4100"/>
<path stroke="#000000" xmlns="http://www.w3.org/2000/svg" d="M9.431,13.175L4.967,13.175" fill="none" stroke-width="0.9" stroke-linecap="round" id="path4102"/>
</g>
</g></g><g partID='854105590'><g transform='translate(78.9518,12.1603)' ><g id="schematic">
<line stroke="#787878" y1="6.78" y2="13.98" x1="7.2" stroke-miterlimit="10" x2="7.2" fill="none" stroke-width="0.75" stroke-linecap="round" id="connector0pin"/>
<g points="6.817,13.567,7.546,13.546,7.546,14.4,6.859,14.359" fill="none" id="connector0terminal"/>
<path stroke="#000000" d="M0.45,6.564l13.5,0" fill="none" stroke-width="0.9" stroke-linecap="round"/>
<g transform="matrix(1, 0, 0, 1, 1.4985, 4.9878)">
<text font-family="'DroidSans'" id="label" font-size="4.4991">5V</text>
</g>
</g>
</g></g><g partID='854106190'><line stroke-linecap='round' stroke='#404040' x1='93.3336' y1='220.534' x2='93.3336' y2='198.933' stroke-width='0.699998' /></g><g partID='854106680'><line stroke-linecap='round' stroke='#404040' x1='208.8' y1='119.999' x2='208.8' y2='105.6' stroke-width='0.699998' /></g><g partID='854106750'><line stroke-linecap='round' stroke='#404040' x1='244.8' y1='119.999' x2='244.533' y2='105.333' stroke-width='0.699998' /></g><g partID='854123840'><line stroke-linecap='round' stroke='#404040' x1='280.8' y1='119.999' x2='280.533' y2='105.333' stroke-width='0.699998' /></g><g partID='854133490'><line stroke-linecap='round' stroke='#404040' x1='208.8' y1='141.6' x2='208.533' y2='220.533' stroke-width='0.699998' /></g><g partID='854133720'><line stroke-linecap='round' stroke='#404040' x1='244.8' y1='141.6' x2='244.8' y2='220.8' stroke-width='0.699998' /></g><g partID='854133990'><line stroke-linecap='round' stroke='#404040' x1='280.8' y1='141.6' x2='280.533' y2='220.533' stroke-width='0.699998' /></g><g partID='854180010'><line stroke-linecap='round' stroke='#404040' x1='86.1336' y1='47.7334' x2='86.1336' y2='26.1334' stroke-width='0.699998' /></g><circle  fill="black" cx="86.1336" cy="47.7334" r="1.44" stroke-width="0" stroke="none" /><g partID='854180530'><line stroke-linecap='round' stroke='#404040' x1='208.8' y1='33.6' x2='208.8' y2='76.8001' stroke-width='0.699998' /></g><circle  fill="black" cx="208.8" cy="76.8001" r="1.44" stroke-width="0" stroke="none" /><g partID='854180380'><line stroke-linecap='round' stroke='#404040' x1='86.4' y1='33.6' x2='208.8' y2='33.6' stroke-width='0.699998' /></g><g partID='854180240'><line stroke-linecap='round' stroke='#404040' x1='86.1336' y1='47.7334' x2='86.4003' y2='33.6' stroke-width='0.699998' /></g><circle  fill="black" cx="86.1336" cy="47.7334" r="1.44" stroke-width="0" stroke="none" /><g partID='854180840'><line stroke-linecap='round' stroke='#404040' x1='244.8' y1='33.6' x2='244.533' y2='76.5329' stroke-width='0.699998' /></g><circle  fill="black" cx="244.533" cy="76.5329" r="1.44" stroke-width="0" stroke="none" /><g partID='854180700'><line stroke-linecap='round' stroke='#404040' x1='280.8' y1='33.6' x2='244.8' y2='33.6' stroke-width='0.699998' /></g><g partID='854180710'><line stroke-linecap='round' stroke='#404040' x1='280.533' y1='76.5329' x2='280.8' y2='33.6' stroke-width='0.699998' /></g><g partID='854181010'><line stroke-linecap='round' stroke='#404040' x1='244.8' y1='33.6' x2='244.533' y2='76.5329' stroke-width='0.699998' /></g><circle  fill="black" cx="244.533" cy="76.5329" r="1.44" stroke-width="0" stroke="none" /><g partID='854181130'><line stroke-linecap='round' stroke='#404040' x1='208.8' y1='33.6' x2='244.8' y2='33.6' stroke-width='0.699998' /></g><g partID='854181020'><line stroke-linecap='round' stroke='#404040' x1='208.8' y1='76.8001' x2='208.8' y2='33.6' stroke-width='0.699998' /></g><circle  fill="black" cx="208.8" cy="76.8001" r="1.44" stroke-width="0" stroke="none" /><g partID='854105420' id='partLabel'><g transform='translate(143.734,42.1334)' ><g font-size='5' font-style='normal' font-weight='normal' fill='#000000' font-family="'DroidSans'" id='schematicLabel' fill-opacity='1' stroke='none' ><text x='0' y='3.75'>Part1</text></g></g></g><g partID='854105450' id='partLabel'><g transform='translate(225.763,76.6168)' ><g transform='matrix(0,1,-1,0,0,0)'  ><g font-size='5' font-style='normal' font-weight='normal' fill='#000000' font-family="'DroidSans'" id='schematicLabel' fill-opacity='1' stroke='none' ><text x='0' y='3.75'>R1</text><text x='0' y='8.75'>220&#x3a9;</text></g></g></g></g><g partID='854106260' id='partLabel'><g transform='translate(297.496,76.3496)' ><g transform='matrix(0,1,-1,0,0,0)'  ><g font-size='5' font-style='normal' font-weight='normal' fill='#000000' font-family="'DroidSans'" id='schematicLabel' fill-opacity='1' stroke='none' ><text x='0' y='3.75'>R3</text><text x='0' y='8.75'>10k&#x3a9;</text></g></g></g></g><g partID='854106220' id='partLabel'><g transform='translate(261.496,76.3496)' ><g transform='matrix(0,1,-1,0,0,0)'  ><g font-size='5' font-style='normal' font-weight='normal' fill='#000000' font-family="'DroidSans'" id='schematicLabel' fill-opacity='1' stroke='none' ><text x='0' y='3.75'>R2</text><text x='0' y='8.75'>1k&#x3a9;</text></g></g></g></g><g partID='854105480' id='partLabel'><g transform='translate(225.779,119.917)' ><g transform='matrix(0,1,-1,0,0,0)'  ><g font-size='5' font-style='normal' font-weight='normal' fill='#000000' font-family="'DroidSans'" id='schematicLabel' fill-opacity='1' stroke='none' ><text x='0' y='3.75'>LED1</text><text x='0' y='8.75'>Red (633nm)</text></g></g></g></g><g partID='854121890' id='partLabel'><g transform='translate(261.779,119.917)' ><g transform='matrix(0,1,-1,0,0,0)'  ><g font-size='5' font-style='normal' font-weight='normal' fill='#000000' font-family="'DroidSans'" id='schematicLabel' fill-opacity='1' stroke='none' ><text x='0' y='3.75'>LED2</text><text x='0' y='8.75'>Red (633nm)</text></g></g></g></g><g partID='854121430' id='partLabel'><g transform='translate(297.779,119.917)' ><g transform='matrix(0,1,-1,0,0,0)'  ><g font-size='5' font-style='normal' font-weight='normal' fill='#000000' font-family="'DroidSans'" id='schematicLabel' fill-opacity='1' stroke='none' ><text x='0' y='3.75'>LED3</text><text x='0' y='8.75'>Red (633nm)</text></g></g></g></g></svg>